<?xml version="1.0" encoding="utf-8"?>
<!-- Generator: Adobe Illustrator 26.5.0, SVG Export Plug-In . SVG Version: 6.00 Build 0)  -->
<svg version="1.1" id="Laag_1" xmlns="http://www.w3.org/2000/svg" xmlns:xlink="http://www.w3.org/1999/xlink" x="0px" y="0px"
	 width="1200px" height="2400px" viewBox="0 0 1200 2400" style="enable-background:new 0 0 1200 2400;" xml:space="preserve">
<style type="text/css">
	.st0{fill:#F994FF;}
	.st1{fill:#85FFAF;}
	.st2{fill:#130092;}
	.st3{fill:#FF00B4;}
	.st4{display:none;fill:#130092;}
	.st5{clip-path:url(#SVGID_00000034802120952961523530000011559628273625714326_);}
	.st6{fill:#FFFFFF;}
	.st7{fill:none;stroke:#000000;stroke-width:4;}
	.st8{clip-path:url(#SVGID_00000109726169993153717070000002072892047343863729_);}
</style>
<rect x="-5.8" y="1559.7" class="st0" width="1251.4" height="1564.6"/>
<rect x="-1.2" y="-4.8" class="st1" width="1200.3" height="1564.6"/>
<rect x="719.7" y="242.5" class="st2" width="500.1" height="717.3"/>
<g id="Facebook_-_inner_blocks">
	<rect x="120" y="2160" class="st0" width="120" height="120"/>
	<rect x="240" y="2040" class="st3" width="120" height="120"/>
	<rect x="362" y="1920" class="st1" width="120" height="120"/>
	<rect x="600" y="1920" class="st2" width="120" height="120"/>
	<rect x="242" y="1800" class="st1" width="120" height="120"/>
	<rect x="240" y="1800" class="st1" width="120" height="120"/>
	<rect x="360" y="1800" class="st3" width="120" height="120"/>
	<rect x="120" y="1440" class="st0" width="120" height="120"/>
	<rect x="120" y="1320" class="st2" width="120" height="120"/>
	<rect x="240" y="1320" class="st0" width="120" height="120"/>
	<rect x="360" y="1320" class="st3" width="120" height="120"/>
	<rect x="240" y="1200" class="st3" width="120" height="120"/>
	<rect x="120" y="960" class="st0" width="120" height="120"/>
	<rect x="120" y="840" class="st1" width="120" height="120"/>
	<rect x="240" y="840" class="st0" width="120" height="120"/>
	<rect x="360" y="720" class="st2" width="120" height="120"/>
	<rect x="240" y="600" class="st0" width="120" height="120"/>
	<rect x="360" y="600" class="st0" width="120" height="120"/>
	<rect x="360" y="480" class="st0" width="120" height="120"/>
	<rect x="720" y="1800" class="st0" width="120" height="120"/>
	<rect x="720" y="1680" class="st0" width="120" height="120"/>
	<rect x="720" y="1560" class="st0" width="120" height="120"/>
	<rect x="240" y="2160" class="st0" width="120" height="120"/>
	<rect x="360" y="2160" class="st1" width="120" height="120"/>
	<rect x="480" y="2160" class="st0" width="120" height="120"/>
	<rect x="600" y="2160" class="st0" width="120" height="120"/>
	<rect x="360" y="2040" class="st2" width="120" height="120"/>
	<rect x="480" y="2040" class="st2" width="120" height="120"/>
	<rect x="600" y="2040" class="st3" width="120" height="120"/>
	<rect x="720" y="2040" class="st1" width="120" height="120"/>
	<rect x="600" y="840" class="st2" width="120" height="120"/>
	<rect x="360" y="1680" class="st1" width="120" height="120"/>
	<rect x="240" y="1680" class="st1" width="120" height="120"/>
	<rect x="480" y="1680" class="st1" width="120" height="120"/>
	<rect x="600" y="720" class="st3" width="120" height="120"/>
	<rect x="720" y="720" class="st2" width="120" height="120"/>
	<rect x="840" y="720" class="st2" width="120" height="120"/>
	<rect x="600" y="600" class="st3" width="120" height="120"/>
	<rect x="720" y="600" class="st2" width="120" height="120"/>
	<rect x="840" y="600" class="st2" width="120" height="120"/>
	<rect x="480" y="360" class="st3" width="120" height="120"/>
	<rect x="600" y="240" class="st3" width="120" height="120"/>
	<rect x="720" y="120" class="st1" width="120" height="120"/>
	<rect x="960" y="120" class="st2" width="120" height="120"/>
	<rect x="602" y="0" class="st1" width="120" height="120"/>
	<rect x="600" y="0" class="st1" width="120" height="120"/>
	<rect x="720" y="0" class="st3" width="120" height="120"/>
	<rect x="720" y="1440" class="st0" width="120" height="120"/>
	<rect x="660" y="1140" class="st0" width="120" height="120"/>
	<rect x="1080" y="0" class="st0" width="120" height="120"/>
	<rect x="600" y="360" class="st0" width="120" height="120"/>
	<rect x="720" y="360" class="st1" width="120" height="120"/>
	<rect x="840" y="360" class="st0" width="120" height="120"/>
	<rect x="960" y="360" class="st0" width="120" height="120"/>
	<rect x="720" y="240" class="st2" width="120" height="120"/>
	<rect x="840" y="240" class="st2" width="120" height="120"/>
	<rect x="960" y="240" class="st3" width="120" height="120"/>
	<rect x="1080" y="1800" class="st2" width="120" height="120"/>
	<rect x="840" y="1680" class="st3" width="120" height="120"/>
	<rect x="840" y="1920" class="st2" width="120" height="120"/>
	<rect x="960" y="1920" class="st2" width="120" height="120"/>
</g>
<g id="Facebook_-_Border">
	<rect y="2280" class="st0" width="120" height="120"/>
	<rect y="2160" class="st3" width="120" height="120"/>
	<rect y="2040" class="st3" width="120" height="120"/>
	<rect y="1920" class="st2" width="120" height="120"/>
	<rect y="1680" class="st0" width="120" height="120"/>
	<rect y="1560" class="st0" width="120" height="120"/>
	<rect y="1440" class="st0" width="120" height="120"/>
	<rect y="1200" class="st0" width="120" height="120"/>
	<rect y="720" class="st0" width="120" height="120"/>
	<rect y="600" class="st1" width="120" height="120"/>
	<rect y="480" class="st0" width="120" height="120"/>
	<rect y="360" class="st2" width="120" height="120"/>
	<rect y="240" class="st0" width="120" height="120"/>
	<rect y="120" class="st0" width="120" height="120"/>
	<rect y="0" class="st1" width="120" height="120"/>
	<rect y="418.8" class="st4" width="69.8" height="69.8"/>
	<rect x="1080" y="2280" class="st0" width="120" height="120"/>
	<rect x="1080" y="2160" class="st0" width="120" height="120"/>
	<rect x="1080" y="2040" class="st0" width="120" height="120"/>
	<rect x="1080" y="1920" class="st3" width="120" height="120"/>
	<rect x="1080" y="1800" class="st1" width="120" height="120"/>
	<rect x="1080" y="1680" class="st1" width="120" height="120"/>
	<rect x="1080" y="1560" class="st1" width="120" height="120"/>
	<rect x="1080" y="1440" class="st2" width="120" height="120"/>
	<rect x="1080" y="1320" class="st0" width="120" height="120"/>
	<rect x="1080" y="0" class="st2" width="120" height="120"/>
	<rect x="120" y="2280" class="st0" width="120" height="120"/>
	<rect x="240" y="2280" class="st1" width="120" height="120"/>
	<rect x="360" y="2280" class="st0" width="120" height="120"/>
	<rect x="480" y="2280" class="st0" width="120" height="120"/>
	<rect x="600" y="2280" class="st2" width="120" height="120"/>
	<rect x="720" y="2280" class="st2" width="120" height="120"/>
	<rect x="840" y="2280" class="st3" width="120" height="120"/>
	<rect x="960" y="2280" class="st1" width="120" height="120"/>
	<rect x="240" y="0" class="st2" width="120" height="120"/>
	<rect x="720" y="0" class="st2" width="120" height="120"/>
	<rect x="840" y="0" class="st2" width="120" height="120"/>
</g>
<g id="Laag_6">
	<rect x="540" y="1020" class="st1" width="120" height="120"/>
	<rect x="660" y="1020" class="st1" width="120" height="120"/>
</g>
<g id="Group_164" transform="translate(293.232 831.627)">
	<g>
		<defs>
			<path id="SVGID_1_" d="M2654.1-724.8c-3.4,45.9-8.2,91.6-36.9,129.9c-8.8,11.8-11,22.6-6.7,36c3.3,10-0.6,18.9-5.8,27.4
				c-11.2,18.4-10.8,23.9,2.9,40.8c3.7,4.5,7.4,9.2,12,12.8c20.5,16.2,31.9,37.8,38.6,62.4c6.2,22.6,11.6,45.4,11.6,69
				c-0.1,43.5-15.1,81.9-41.4,116.2c-14.4,18.7-30.5,35.3-52.8,44.8c-2.8,1.2-4.3,3.9-5.8,6.7c-18.6,35-46.6,58.2-85.1,68.3
				c-3.4,0.7-6.4,2.9-8.3,5.9c-8.1,12.6-16,25.5-27.3,35.6c-21.5,19.3-46.6,22.3-73.4,14.1c-39.3-12-62.1-42.7-62.3-83.9
				c0-6.7-2.2-11.3-9.3-11.1c-14.6,0.3-29-3.1-41.9-9.9c-12-6.1-23.9-4.8-36.3-2.3c-45.1,9.2-86.1-1.6-124-26.4
				c-10.1-6.6-17-16.8-23.6-26.7c-8.9-13.4-19.6-22.9-36.2-24.9c-6.9-0.8-12.5-5.6-18.4-8.9c-7.2-4-13.9-3.5-20.9,0.6
				c-12.5,7.4-23.3,17.1-36,24.2c-9.6,5.4-19.1,10.3-30.3,11.5c-29.7,3.1-53.2,18.6-74.6,38c-17.1,15.5-34.5,30.7-53.5,43.9
				c-20.4,14.1-42.3,17.4-65.7,8.4c-9.8-3.7-19.4-7.6-28.2-13.3c-10.1-6.5-16.4-16.2-23-25.9c-16.6-24.7-39.1-44.1-61.7-63
				c-28.8-24-40.1-55.8-44.7-91.2c-2.4-18.6-4.4-37.2-0.2-56c4.2-18.8,19.2-31.4,38.4-31.6c32.1-0.4,61.3,10.3,90,23.2
				c5.1,2.3,10.2,4.5,15.4,6.6c5.4,2.2,8.2,0.5,8.5-5.5c0.2-2.5,0.7-5,1.4-7.5c4.7-16.9,15-22.9,31.6-17.9c5.4,1.6,10.9,1.9,14.3-2
				c6.5-7.3,14.3-6.8,21.7-4.4c12.5,4.1,20.5-0.2,28-10.1c20.9-27.5,45-52,74.1-70.7c18.4-11.8,37.2-22.7,53.3-37.7
				c15.8-14.7,29.6-30.7,35.2-52.3c3.3-12.4-3.7-20.9-16.4-19.3c-10.4,1.5-21-0.7-30-6.1c-9.4-5.5-18.9-7.3-29.8-3.4
				c-18.3,6.6-35.6,1.9-51.8-7.5c-5.6-3.2-10.6-5.9-17.6-4.8c-8.3,1.2-16.6-1.6-25.4,0.1c-7.4,1.4-10.3-6.3-11.6-12.7
				c-3.8-17.8,5-30.9,17.2-42.2c16.5-15.4,36.1-26.2,56.4-35.6c5.2-2.4,7.9-5.3,7.3-11.6c-0.9-8.7,3.8-15.5,9.6-21.6
				c5.5-5.8,12.4-10.5,15.3-18.7c2.6-7.5,1.3-10.1-6.5-11.7c-8.2-1.8-16.4-3.7-24.5-5.4c-12.9-2.7-23.7-8.8-31.7-19.4
				c-6.3-8.3-13.2-11.4-24.4-7.6c-24.1,8.3-45.9,1.6-65.7-13.5c-19.3-14.7-33.9-32.8-39.9-56.9c-2.7-10.9-3.8-22.1-0.9-33.1
				c1.7-6.5,0.1-11.2-5.5-15.1c-9-6.2-18-12.5-25.4-20.6c-12.8-14.1-16.7-30.5-14.5-49.2c2.6-22.6,14.2-38.6,33.1-50
				c4.4-2.6,5.6-5.7,4.5-10.7c-7-31.8,5.6-54.4,36.4-65.6c11.3-4.1,13.2-7.6,8.3-18.1c-18-38.4-14.9-76.5,1.6-114.3
				c13.7-31.4,31.6-59.7,60.5-79.7c28.5-19.8,59.3-29.7,94.1-23.3c5.1,0.9,9.2,0.2,13.4-3.3c13.8-11.8,29.1-15,45.8-6.4
				c6.1,3.2,9,1.3,11.3-4.9c12.6-34.8,37.8-57,71.6-70.2c33.1-13,66.2-10.2,99.2,0.5c6.5,2.1,10.8,0.3,14.5-4.7
				c13-17.3,30-26,51.9-24.8c6.1,0.4,12,2,17.4,4.8c9.1,4.4,12.8,4.1,20.5-2.9c5.6-5.2,10.9-10.7,16.3-16c15.3-15,34-19.8,55-19
				c16.3,0.6,32.4,1.9,48,7.1c17.5,5.8,31.6,15.9,41.2,31.9c5.7,9.5,9.4,10.9,20.2,8.9c45.8-8.4,81.8,9.9,102,51.8
				c3.9,8.1,8.5,9.3,15.7,4.2c16.1-11.4,30.9-10.9,45.7,1.6c9.1,7.6,11.5,7.7,21,0.3c36.3-27.9,86.7-6.6,100.8,31.9
				c0.8,2.4,1.1,5,0.8,7.5c-0.9,7.7,1.8,12.1,10,12.8c10.4,0.9,17.9,7,23,15.7c3.2,5.3,6.5,7.1,12.3,3.9
				c17.6-9.5,36.5-11.1,56.2-9.9c40.1,2.6,69.8,31.8,81.6,63.8c7.3,19.9,9.6,40.4,3.3,61.2c-1.5,4.6-3.7,8.9-6.5,12.8
				c-3.7,5.2-3,8.4,3.1,11.1c23.8,10.6,30.1,36.9,14,57.4c-7.5,9.6-7.5,10.8,1.1,19.7c1.3,1.6,2.7,3,4.2,4.4
				c27.5,22.3,28.6,52,23.4,83.4c-1.7,10.6-5.2,20.8-10.1,30.3c-11.5,21.9-29.9,34.7-53.8,39.8c-5.7,1.2-7.8,4-7.4,9.4
				c0.4,7.1,1.7,14.1,0.3,21.3c-3,16-13.8,26.9-29.8,29.5c-2.3,0.3-4.5,0.8-6.7,1.5c-8.8,2.8-10.6,6.2-5.9,14
				c14.8,24.7,11.1,48.4-4.1,70.8c-16.2,23.7-36.4,43.1-65.4,50.5c-27.1,6.9-53.4,3.6-79.1-6.3c-5.4-2.1-10.9-4.1-16.3-6.4
				c-4.2-1.8-6.7-0.9-7.8,3.7c-2,7.9-5,15-13.9,17.5c-3,0.9-3.3,3.4-3.3,6.1C2654.1-737,2654.1-730.9,2654.1-724.8z M2631.8-408
				c-5.8-21.6-14.8-41.3-32.7-55.3c-13.4-10.5-23.4-23-27-40c-0.9-3.5-2.3-6.8-4.1-9.8c-3.5-6.4-7.6-7.7-12.8-2.6
				c-9.9,9.8-21.7,16.7-33.1,24.3c-24.1,16.1-48.2,32.1-76.4,40.4c-21,6.2-41.7,12.6-60.9,23.5c-4.7,2.7-10.4,4.8-16.1,4
				c-15.8-2.3-28.8,3.6-41.2,12.5c-11.1,8-23,12.8-37.1,9.9c-2.8-0.6-6.1,0.2-9,1.2c-11.4,3.7-21.4,2.6-30.1-6.5
				c-4-4.4-9.7-6.8-15.6-6.7c-4.6,0-10-1.3-12.1-5.3c-7.1-13.4-13-27.6-16.3-42.2c-1.9-8.3,4.2-16.5,10.3-23
				c15.7-16.9,33.2-31.3,55.2-39.6c21.2-8,40.4-19,54.4-37.5c8.1-10.6,15.7-21.5,12.1-35.4c-3.1-11.9,1.5-19.5,10.2-26.3
				c7.3-5.7,12.7-12.5,10.3-22.8c-0.4-2.3-0.1-4.6,1.1-6.7c5.8-11.7,13.6-20.9,27.8-21.9c11.2-0.8,16.7-7,20-17.5
				c6.6-21,11.8-42.6,19.7-63.2c4.3-11.2,10.1-21.6,15.4-32.3c1.4-2.8,3.9-5.5,7.2-3.8c3,1.5,2.1,4.8,1.2,7.5
				c-1.1,3.4-2.2,6.7-3.3,10.1c-7.2,22.5-15,44.8-17.6,68.5c-0.7,6.5,1.3,8.1,6.9,8.3c6.9,0.3,13.6,1.7,19.5,5.7
				c5.6,3.8,11.3,3.4,17.4,1.3c22.7-7.9,32-5.4,47.3,12.6c2.7,3.1,5.7,5,9.8,4.7c19.7-1.6,32.4,9.1,42.5,24.3
				c1.8,2.6,3.6,4.8,6.8,5.7c9.3,2.7,17.4,7.1,21.7,16.5c1.3,2.9,3.6,3,4.9-0.1c7-18.2,15.4-36,18.4-55.5
				c6.1-40.7,3.8-81.2-5.3-121.2c-11-48.8-40.1-81.6-87.8-97.5c-14.8-4.9-27.4-2.7-37.8,9.7c-5.9,7-12.3,13.5-18.7,20
				c-16.8,17.2-36.8,29.5-60.1,35.9c-34.3,9.5-64.7,0.3-92.3-20.6c-7.5-5.7-7.6-5.9-12.2,2.8c-3.3,6.3-8.2,9.6-15.1,9.9
				c-6.9,0.2-11.8-3.3-14.3-9.5c-3-7.5-7.1-7.5-13.5-4.1c-12.8,6.8-26.1,12.7-41,12.9c-21.5,0.3-44.6-10.5-42.3-40.3
				c0.6-8.2,1.3-16.2,4.3-23.9c1.6-4,1-6.5-4.4-7c-31.1-2.5-59.8,5.5-87.2,19.5c-40.2,20.5-71.8,51-99.6,85.9
				c-3.5,4.4-5.7,8.6-2.7,13.8c3.1,5.3,8.4,5.7,13.4,3.9c14.9-5.4,25.7,0.4,34.4,12.1c2.3,3,4.9,5.5,8.6,5.6
				c7.4,0.1,13.2,3.6,18.6,7.8c5.5,4.2,8.8,2.7,11.9-3c7.5-14.1,13.2-29.1,21.1-43c8.3-14.8,15.7-30.1,23.8-45
				c1.7-3.1,4.1-7.8,8.6-5.3c4.7,2.6,0.6,6.3-0.7,9.2c-4.1,9.6-8.7,18.9-11.6,28.9c-0.7,2.5-2.8,5.7,0.2,7.5
				c2.5,1.5,4.7-1.1,6.5-2.8c5-4.7,9.9-9.5,14.8-14.3c1.8-1.8,3.5-3.7,5.3-5.4c1.9-1.8,4.2-3.8,6.6-1.5c2.3,2.2-0.4,4.1-1.6,5.8
				c-1.4,1.8-3.1,3.4-4.5,5.1c-8.2,10-18,18.6-25.4,29.4c-19.9,29.1-39.3,58.4-54.9,90.3c-18.2,37-35.3,74.4-46.6,114.2
				c-9.2,32.5-25.1,60.4-50.3,82.7c-11.4,10.2-23.3,19.6-35.9,28.3c-2,1.4-5.9,2.6-4.7,6.1c1,2.9,4.4,3.1,7.2,3.5
				c26.6,3.8,50.1,15.8,73.4,28.2c18.2,9.7,32.8,24.8,50.8,34.9c40.5,22.8,83.4,38.3,130.2,40.6c31.3,1.6,62.6,2.1,93.2-6.3
				c32.9-9,64.9-20.4,96.6-32.7c34.7-13.4,68.5-29.6,105.4-36.9c33.2-6.5,65.5-7,96.6,9.3C2603.5-429.6,2618.3-420.1,2631.8-408z
				 M2164.8-1178.3c4.2-2.9,6.1-7.6,10.5-10c14.3-7.5,34.3-3.5,44.2,9.3c2.1,2.7,4.7,5.8,1.4,9.5c-2.4,2.9-6.7,3.4-9.7,1
				c-8.7-6.3-18.4-5.4-27.9-4.8c-12.7,0.8-22,10.8-21.3,21.3c1.6,24.3,3,48.7,4.3,73c1.2,22.9,2.9,45.9,9.5,67.8
				c9.2,30.8,31.6,48.1,62.7,54.5c6.7,1.4,13.6,2.6,18.1,8.7c3.5,4.7,8.3,7.4,13.7,9.1c23.3,7.4,46.8,7.3,70.7,2.6
				c41.1-8.2,76.9-26.5,108.5-53.7c3.8-3.3,7-7.3,10.3-11.1c6.2-7.2,6.6-14.2,1.5-22.8c-8.1-13.7-3.9-32.6,7.7-41.4
				c6.8-5.1,6.6-6.7-0.8-11c-8.9-5.1-16.8-10.7-20.3-21.5c-5.7-17.9-2.2-34.1,6.6-49.8c4.3-7.7,7.3-15.7,7.1-24.5
				c-0.1-4.8-1.4-6.9-7-4.7c-19,7.7-27.9,4.1-37.2-14.4c-2.8-5.7-6.4-9.7-13.5-8.9c-2.3,0.1-4.6-0.7-6.3-2.3
				c-10.5-8.3-12.1-18.1-8.7-30.8c0.6-2.4,2-5.3,4.7-5.5c3-0.2,4,2.7,4.7,5.2c0.7,2.3,1.5,4.7,4.5,3.9c2.6-0.7,5.7-1.4,6-4.9
				c0.9-10.5,0.6-20.8-4.9-30.4c-1.8-3-4-3.9-6.9-2.2c-4.1,2.5-8.6,3.2-13.1,3.6c-7,0.6-9.7,4.5-11.2,11.1
				c-3.1,13.8-12.2,23-24.3,29.7c-2.8,1.6-5.2,1.9-6.5-2c-1.3-4.1-3.8-3.2-6.4-1.1c-3.8,3-7.5,6.1-12.2,7.6c-2.1,0.6-4,0.9-5.5-0.9
				c-1.7-2.1-0.4-3.9,0.8-5.5c2.3-3.1,4.6-6.2,4.1-10.3c-0.3-2.3,1.4-6-1.8-6.7c-3.4-0.8-3.1,3.3-4.2,5.3c-3.9,7.7-9,14.2-17.2,17.6
				c-2.3,1-5.1,1.6-7.2-0.4c-2.2-2.1-0.4-4.3,0.4-6.3c1.8-4.7,3.5-9.4,2-14.8c-3.4,1.5-3.5,4.9-4.5,7.5
				c-8.1,20.1-25.4,32.4-44.1,31.4c-12.2-0.7-24.5-9.1-27.4-18.6c-1-3.4-1.4-6.7,1.4-9.2c2.5-2.4,5.2-0.5,7.9,0.3
				c10.2,3.3,14.7-0.2,14.9-11.1c0-5.4-1.8-10.6-5.1-14.9c-4.1-5.8-8.4-5.8-12.6-0.3c-7.2,9.4-15,18-25.7,23.4
				c-4.4,2.2-8.9,3.5-13.9,1.9c-2-0.6-4.1-1-4.3-3.6c-0.2-2.1,1-4.1,2.9-4.9c7.6-3.3,9.9-10.5,12.8-17.2c1.6-3.7,3.9-8.6-0.4-11
				c-4.2-2.3-7.1,2.5-9.7,5.4c-6.9,7.8-10.3,17.4-13.6,27C2167.1-1216.4,2164.2-1197.4,2164.8-1178.3z M2620-258
				c0.6-0.1,1.2-0.1,1.5-0.3c0.7-0.7,1.3-1.5,1.9-2.4c13.2-20.9,19.3-43.6,15.6-68.2c-3.8-25.9-12.4-50.1-31.6-68.7
				c-31.7-30.8-70.4-39.5-113.3-33c-25.5,3.8-48,16-71.4,25.7c-50.6,21.1-101.3,41.7-155.9,50.8c-38.5,6.4-76.8,6.4-115-2
				c-53.5-11.7-100.9-36.5-145.6-67.1c-17.3-11.8-34.6-23.3-55.3-27.9c-43.7-9.6-60.5-1.7-81.7,30.1c-1,1.5-2.4,2.9-1.4,4.8
				c0.9,1.6,2.6,1.2,4.1,1.1c45-1.4,83.8,14.8,118.7,41.9c19.7,15.3,40.3,29.4,62.9,39.7c40,18.2,82.7,25.9,126,30.6
				c35.2,3.8,70.1,0.6,104.7-5.7c25.2-4.6,50.4-9.1,74.7-17.7c38.8-13.7,73.8-34.7,108.5-56.3c13.1-8.2,26.8-16,42.5-17.4
				c35.5-3.1,63.2,12.5,83.2,40.1c20.2,27.9,29.1,60.1,25.3,95.1C2618.3-262.6,2617.9-260,2620-258L2620-258z M1689.7-344
				c4.9,0.5,7.4,3.1,10.1,5.4c10.3,8.7,15.3,20.5,19.2,33.1c5.4,17.4,16.5,29.6,33.2,37.5c37.2,17.7,57.3,47.1,58.5,88.8
				c0.1,3.8-2.6,8.9,1.6,11.3c4.9,2.8,7.7-2.8,10.8-5.1c16.2-11.7,31.3-24.6,39.8-43.3c18.2-40.3-1.3-94.9-41.1-116.5
				c-6.2-3.3-12.2-5.2-18.8-2.2c-11.3,5.1-22.8,4.2-34.3,1c-13.6-3.8-25.2-11.8-37.5-18.3c-24.4-12.8-51.4-18.8-76.9-28.7
				c-8.5-3.4-17.6-5-26.7-4.8c-10.3,0.3-19,3.8-22.8,14.4c-1.8,5.3-2.6,10.9-2.4,16.5c0.2,15.6,3,30.8,7.1,45.8
				c6.3,23.2,13.7,45.8,30.6,63.9c7,7.5,15.6,13,23.3,19.5c14.7,12.4,25.1,28.5,37.1,43.4c12.3,15.4,25.7,29.5,44.8,36.6
				c18.1,6.7,36.8-1.9,39.6-19c2.8-17.6-0.6-34.5-9.2-50c-9.4-16.9-23.2-30.4-38.6-41.7c-16.5-12.1-27-27-29.2-47.8
				c-1-9.4-3.9-18.4-8.6-26.6C1696.6-335.3,1690.9-337.5,1689.7-344z M2327.9-523.8c-13.1-0.2-26.2,2.1-38.4,6.8
				c-23.9,9-43.2,24.4-60.1,43.1c-3.5,3.9-9.9,8.5-4.4,14c6.1,6.1,10.6-0.5,14.2-4.8c9.1-10.7,18.9-20.5,31-27.9
				c3.6-2.2,7.7-3.4,10.3-0.1c2.8,3.6-1.5,5.9-3.7,8c-8.8,8.1-18.2,15.5-26.6,24c-6.9,7-13.9,14.1-18.2,23.2
				c-1.9,3.9-2.5,8.3,1.3,11.2c3.7,2.8,7.6,1.1,11.1-1.6c7.8-5.8,14.4-12.9,20.6-20.3c8.1-9.8,16.5-19.3,26.3-27.5
				c3.4-2.8,8-3.8,11-0.3c3.3,3.7,1.2,7.4-2.5,10.3c-9.6,7.3-17.1,16.7-25.4,25.2c-4.6,4.6-9.2,9.5-11.4,16
				c-1.4,4.3-3.1,8.8,1.4,11.7c4.3,2.8,8,0.1,11.4-3c9.4-8.7,16.5-19.3,24-29.6c4.8-6.9,11.4-12.4,19-16c2.8-1.3,5.7-3.5,8.1-0.1
				c2.2,3.1-0.8,5-2.6,7c-7.8,8.7-15.6,17.4-23.2,26.2c-2.2,2.6-5,6.2-2.1,9.6c2.7,3.1,6.4,1.5,9.8-0.3c8.1-4.3,15.4-10,21.4-17
				c5.2-5.9,10-7.6,17.7-4.5c17.9,7.4,33.2,0.9,47-10.7c5.7-4.8,10-10.8,13.9-17.1c2.1-3.3,4.6-5,6.8-1c4.2,7.8,10.9,6.5,17.3,5.5
				c14-2.1,26.5-8.5,38.7-15.3c27.2-15.2,47.5-38.1,65.6-62.6c13.7-18.5,11.9-39.4-1.7-58.1c-22-30.4-58.6-39.7-92.4-32.2
				c-41.3,9.2-71.1,36-95,69.3c-10.8,15.1-10.1,24.7,4,33.9c0.2,0.1,0.4,0.3,0.5,0.5c1.2,1.5,3.6,2.5,2.3,5c-1.1,2-3.1,1.3-4.8,1.3
				C2342.2-521.5,2334.6-525.1,2327.9-523.8z M2500.9-234.7c1.4-37.9-17.1-63.5-50.4-78.6c-23.2-10.5-48.8-7.9-63.7,11.7
				c-8.5,11.2-12.3,24.9-17,38c-8.9,25.1-14.7,51.2-22,76.7c-6.3,21.8-10.3,43.9-7,66.9c5.4,37.7,43.6,52.9,70.1,44.7
				c13.4-4.2,23.5-13.3,31.8-23.8c17.8-22.6,31.3-48,43.6-73.9C2495.6-192.3,2500.6-213.4,2500.9-234.7L2500.9-234.7z M1922.5-232.9
				c20.8-1.7,42.4-13,58.6-33.4c13.9-17.5,16.4-37.6,4.9-56.9c-15.7-26.5-35.7-49.3-64.9-62.3c-29.2-13-64.5-10.6-86.1,15.9
				c-10.1,12.4-10,15.9,3.6,23.5c1.3,0.7,2.7,1.5,4,2.2c29.1,15.5,42.5,40.7,44.9,72.7c0.3,5.8,1.2,11.6,2.6,17.3
				C1893.6-240.3,1903-232.8,1922.5-232.9z M2517.7-381.4c-30.1,0-52.3,13.4-62.8,37.4c-2.3,5.2-1.1,8,3.4,10.3
				c7.4,3.9,14.9,7.7,22.2,11.8c13,7.4,24.4,16.4,31.1,30.4c7.4,15.7,13.1,31.9,12.8,49.6c-0.1,5.5,1,9,6.5,12.2
				c11.7,6.7,13.4,16.8,6.2,28.4c-3.3,5.4-7.7,10.1-12.9,13.8c-4.1,2.9-5.5,6.1-4.6,11c1.8,9.9-3.2,16.6-11,21.6
				c-2.5,1.6-5.4,2.8-8,4.3c-3,1.7-6.1,4-4.3,7.7c1.9,3.7,5.2,1.4,7.9,0.3c13.8-5.4,23.9-15.1,32.4-26.8c13.1-18.2,24.5-37.1,28-60
				c3.3-21.8,1.5-43-3.4-64.2c-0.7-3-2.5-6.9,1.9-8.7c3.6-1.4,5.4,1.8,7.4,4.1c0.9,1.2,1.8,2.5,2.5,3.8c6.8,10.8,8.5,23.3,12,35.2
				c0.7,2.2,0.7,5,3.7,4.9c2.3-0.1,3-2.6,3.4-4.5c5.2-22,7.6-43.9-0.1-65.9C2578.9-362.3,2553.9-381.4,2517.7-381.4z M2199.4-261.8
				c-1.8-0.1-3.6-0.1-5.3,0.1c-2.6,0.5-6.1-1.9-7.6,1.3c-1.6,3.5,2.1,5.5,3.9,7.6c6.1,7.2,12.3,14.2,18.8,20.9
				c23.3,24.2,48.7,44.2,83.7,48.7c21.1,2.7,31.6-3.7,34.8-24.5c2.2-14,5.9-27.8,11.1-41c3-7.8,5.6-15.8,8-23.7
				c1.2-4.1,1.1-7.8-5.1-7.1c-15.6,1.8-31.3,2.9-46.7,6.5C2263.8-265.6,2231.7-261.9,2199.4-261.8z M2392.4-848.3
				c26.9-1.2,51.1-14,70.4-37.4c17.9-21.7,14.6-49.3-8-66.2c-9.5-7.1-11.2-6.8-20.6,0.2c-29.5,22.1-61.9,38.6-97.5,48.4
				c-7.4,2-9.7,5.2-6.1,13C2344.4-860.2,2357.7-848.4,2392.4-848.3z M2184-187.3c8.6,0.5,16.8-1,25-2.7c2.7-0.6,6-0.4,7-3.6
				c1-3.4-0.6-6.2-3.2-8.7c-7.5-7.2-15.3-14.3-22.2-22.1c-20.9-23.6-47.6-37.5-76.8-47.4c-21.6-7.3-43.3-14.2-65-21.4
				c-9.2-3-18-7.1-26.1-12.3c-2-1.3-4.5-2.7-7.1-1.2c-1.4,0.8-1.9,2.6-1.3,4c4.2,13.7,8.8,27.4,23.2,34c6.8,3.1,14.1,3.9,21.6,3.9
				c4.9,0,9.8,0.9,12.5,5.6c6.4,10.8,14.9,19.9,23.2,29.2C2118.5-203.2,2148.1-188.7,2184-187.3z M2027.1-652.1
				c-0.7-22.8-15.2-35.4-33.7-44.7c-11.7-5.9-24.8-7.9-37.5-9.5c-9.1-1.1-19.4-0.5-26.2,7.3c-8.6,9.8-12.4,21.9-13.4,34.9
				c-0.2,2.3-0.1,4.8,2.6,5.8c2.4,0.9,4.4-0.2,6.3-1.7c4.6-3.5,6.9-8.8,9.4-13.7c1.8-3.4,4-4.8,7.2-3c6.4,3.5,12.7,2.8,19-0.1
				c2.6-1.2,4.4-0.5,6,1.4c1.6,1.9,1,3.6,0,5.6c-3.7,7.7-10.8,12.1-20.7,11.1c-5.3-0.5-8.8,0.5-11.5,5.1c-2.7,4.6-7.4,7.3-12.2,6.2
				c-11-2.5-20.5-2.6-26.1,9.5c-0.6,1.2-3.2,1.4-4.6,2.4c-3.3,2.4-4.9,4.7,0.5,6.7c7.1,2.7,13.9,2.9,20.4-1.4
				c10.2-6.9,20.8-6.8,32.1-3.1c9,3,17.2,7.5,25.8,11.2c8.5,3.6,12.2,1.2,11-7.6c-1-7.1,0.3-14.4,3.8-20.6c2.6-4.8,5.6-9,3.8-14.8
				c-0.6-1.5,0-3.2,1.3-4c1.6-0.9,2.7,0.2,4,1.2c6.3,4.9,7.5,10.2,4,17.4c-1.8,3.3-3.4,6.7-4.7,10.3c-2.3,7,1.2,16.6,6.8,19.4
				c6.3,3.2,15.3,0.1,19.6-7.2C2024.5-635.5,2027.3-643.3,2027.1-652.1z M2476.7-652.8c5.6,0.7,9,1,12.4,2.4
				c14,5.9,25.7,16.4,41.1,19.5c2.2,0.4,4.3,2.8,5.8,4.7c7,8.6,11.2,19.4,20.3,26.3c0.8,0.7,1.3,1.6,1.4,2.6
				c0.3,6.7,3.8,12.1,7.5,17.2c5.7,7.9,5.9,16,1.8,24.3c-2.3,4.7-3,9.1,2,11.9c5,2.8,10.1,2.4,14.3-2.5c5.4-6.3,7.6-22.4,1.8-28.7
				c-6.7-7.4-5.1-13.8-1.8-21.6c5.6-13.3,0.9-22.4-13.2-26.6c-5.6-1.7-11.7-3.1-14-9.3c-4.6-12.1-14.1-17.8-26.1-19.4
				c-7.8-1.1-13.4-4.7-19-9.9c-12.9-11.9-28.3-17.6-45.5-12.6c-8.8,2.6-16.5,4-24.9-0.1c-3.4-1.7-7.1-2.1-9.9,0.9
				c-8.6,9.5-20.3,12-32,14.4c-9.8,2-17.7,7.2-21.1,16.7c-2.9,8-5.8,15.5-13,20.8c-2.2,1.7-4,5.3-1.6,8.2c2.5,3.1,6.2,3.6,9.6,1.5
				c4.9-3.1,9.7-6.4,12.7-11.7c3.3-6.1,8.6-9.7,15.3-11.7c10.4-3,21.4-4.9,29.6-12.9c1.4-1.1,3.2-1.7,5-1.6
				C2449.9-649.5,2464.6-645.6,2476.7-652.8z M2231.1-861.9c3.2-0.3,6.8,0,10.1-1.6c17.8-8.4,33-20,44.2-36.4c5.5-8,3.5-16-5.4-20
				c-10.9-4.9-21.9-9.3-33-13.7c-5.4-2.1-10.1-0.9-14.6,3.1c-10.3,9.2-17.3,20.6-22.6,33C2200.8-876.5,2209.7-861.7,2231.1-861.9
				L2231.1-861.9z M1962.9-771.6c-11.5-0.5-19.1,3.6-24.6,12c-4.8,7.5-10.2,14.5-18.6,18.7c-2,1.2-3.6,2.8-4.7,4.8
				c-1.2,1.9-1.8,4.6,0.4,6.2c1.9,1.4,3.1-0.8,4.5-1.7c9.1-5.9,18-12,27.3-17.5c6-3.6,12.6-5.3,19.7-3.9c2.3,0.5,4.6,0.3,6.7-0.6
				c8.7-4,17.8-2.9,27-3.4c12.3-0.7,19.4,3.3,28.4,10.1c7.1,5.4,14.8,8.7,17.9,18.1c2,5.9,10.6,7.1,13.7,2.6
				c6.3-9.3,1.6-27.6-10.8-27.3c-5.4,0.1-8.8-2.7-11.4-7.4c-4.9-8.9-12.3-14.1-23-13c-7.1,0.7-13.5-1.7-19.9-4
				c-4.2-1.5-8.6-2.6-12.3,0.7C1976.9-771.5,1969.6-769.9,1962.9-771.6L1962.9-771.6z M1978.2-739.7c-7.2-0.8-13.8,1.3-20.4,3.1
				c-6.3,1.9-12.2,5.1-17.3,9.3c-2,1.6-3.6,4-2.3,6.7c1.2,2.5,3.5,1.1,5.4,0.9c6.8-0.7,13.6-0.7,20.4-0.1
				c28.2,3.2,52.3,13.7,68.4,38.5c1,1.6,1.3,4.5,3.9,4c2.9-0.5,3.7-3.3,4.3-5.8c2.1-8.9-0.2-17.1-4.1-25
				C2024.3-731.9,2002.3-737.8,1978.2-739.7L1978.2-739.7z M1873.6-654.6c-0.1,5.1-0.6,8.7,3.2,10.4c3.4,1.5,6.4,0,9.2-2
				c2.8-2,4.6-4.8,6.3-7.6c5.8-9.8,10.3-20.3,16.7-29.7c1.8-2.8,2.9-6,3.1-9.3c0.3-4.5-1.4-6.7-6-6.7c-7.4,0-13.1,3.6-17.7,8.9
				C1879-679.7,1875.9-666.4,1873.6-654.6z M1865.9-666.3c0.1-1.3,0.1-2.5,0-3.8c-0.6-2.5,2-6.4-1.4-7.4c-3.2-0.9-5.2,2.5-7,5
				c-5.7,7.9-7,17.2-8.4,26.5c-0.5,3.2-0.8,7.1,3.2,8.4c3.9,1.3,6.7-1.1,8.8-4.4C1865.8-649.5,1865.8-657.9,1865.9-666.3
				L1865.9-666.3z M1825.7-641c0.5,2.9,1.9,6.8,6.5,3.6c6.7-4.7,9.8-12.1,10.6-20.1c0.3-3.1-1.6-6.9-5.5-3.9
				C1831.1-656.6,1825.9-650.7,1825.7-641z M1789.9-356.5c9.1-3.8,12-8.4,10.9-16.4c-0.5-3.7-2.5-5.2-6-5.3
				c-3.7-0.1-4.8,2.3-4.9,5.4C1789.8-367.5,1789.9-362.1,1789.9-356.5z M1770-360.3c-0.6-5.6-2-11-5.9-15.3c-1-1.1-2.1-2.5-3.8-1.8
				c-1.7,0.7-1.6,2.4-1.6,3.9c0.3,5.8,3.2,10.5,6.4,15.1c0.8,1.1,1.6,3,3.4,2.1C1770.2-357,1770.1-358.8,1770-360.3z M2295.3-859.6
				c2.4-0.2,4.2-2.3,4-4.6c0.1-3-0.6-5.9-4.1-6.1c-2.6-0.2-4,1.9-4.2,4.5C2290.7-862.7,2292.1-860.6,2295.3-859.6L2295.3-859.6z
				 M2220.4-556.7c0.1,10.2-8.8,19.6-19,20c-10.7,0.4-18.7-7.7-19-19.4c-0.3-10.6,8.8-20.1,19.5-20.4
				C2212.2-576.7,2220.2-568.2,2220.4-556.7L2220.4-556.7z M2202.5-560.9c0.1-3.6-0.2-6.4-4.2-6c-4.7,0.5-7,3.8-7.4,8.1
				c-0.3,3.4,2.1,5,5.3,4.8C2200.7-554.3,2203.1-556.7,2202.5-560.9L2202.5-560.9z M2271.2-748.7c-0.2,9.8-8.4,18.6-17.5,18.5
				c-9.4,0-19.6-10.3-19.6-19.7c0-9.7,8.9-18.8,18.3-18.8C2262-768.7,2271.4-758.8,2271.2-748.7L2271.2-748.7z M2249.8-758.9
				c-2.5,0.5-3.5,2.1-3.7,4.7c-0.2,2.9,0.7,5.3,3.6,5.6c2.5,0.3,3.7-2.2,4.1-4.5C2254.3-756.1,2252.3-757.6,2249.8-758.9z
				 M2239.6-647.5c-0.2,11.2-7.2,18.5-17.8,18.4c-10.9-0.1-18.6-7.1-18.5-16.9c0.2-14.2,7.3-22.8,19-22.6
				C2232.2-668.5,2239.8-659.3,2239.6-647.5z M2212-652.3c-0.7,5.2,0.7,8.1,4.4,8.1c4.8,0,6.1-4.2,6.6-7.9c0.5-3.3-1.9-5.4-5-5.6
				C2213.4-658,2212.4-654.4,2212-652.3z M2391.2-1120.2c2.7,4.5,5.5,8.9,8,13.4c2.6,4.8,0.9,7.9-4.5,8.4c-2.8,0.3-5.4,0.6-7.9,2.3
				c-21.6,14.9-35.9,10-44.4-16c-2.1,4.6-0.8,8.3-0.2,12c0.3,1.9,1.7,4.3-0.7,5.4c-2.4,1.2-4.5-0.5-5.9-2.3c-1.3-1.8-2.4-3.9-3-6.1
				c-2.1-6.5-4-12.8-8.3-18.5c-4.4-5.8-1-14.6,5.9-17.9c3.9-1.8,7.9-3.5,12.3-3.7c4.9-0.2,9.6-1.6,13.7-4.2
				c10.6-7,20.6-5.1,30.6,1.1c6.7,4.2,12.5,9.6,17.2,16c3.6,4.6,7.1,6.8,12.9,4.5c2.3-0.9,5.1-1.7,7,0.9c1.5,2.1,0.5,4.4-0.3,6.6
				c-4.1,11-12.9,12.9-21.2,4.8c-3.8-3.7-6.4-8.5-11.1-11.3c-1.3-2.6-3.2-4.5-7.2-6.1L2391.2-1120.2z M2380.5-1115
				c0.1-4.1-1.1-6.9-5.8-6.9c-3.9,0-6.7,1.9-6.1,5.8c0.5,3.2,0,8,5.9,7.8C2379.1-1108.5,2380.7-1110.8,2380.5-1115z M2202.2-1118.4
				c-4.2,5.4-2.8,10.8-2,16.2c0.4,2.8,1.7,6.7-2.6,7.6c-3.4,0.7-5.6-2.2-6.7-5.1c-1.3-3.5-2.2-7.3-3.3-10.9
				c-1.9-6.5-2.8-13.3-9.1-17.9c-3.7-2.7-1.5-5.8,2.3-6.1c9.2-0.7,15.8-6,22.8-11.1c12.8-9.4,26.2-6.3,38.8,0.5
				c12.7,6.9,20.1,21.8,18.3,34.3c-0.3,2.4-0.8,5.1-2.5,6.2c-6.6,4-10.6,10.7-16.9,14.9c-8.8,6-18.4,6.7-27.2,0.9
				c-8.6-5.8-11.1-15.2-11.1-25.2c0-1,0.1-2,0.1-3C2203.1-1117.4,2202.8-1117.6,2202.2-1118.4L2202.2-1118.4z M2230.6-1120.6
				c-4.2,0-6.1,2.2-6.5,6c-0.5,5.1,2.7,7.9,6.9,8.1c3.7,0.2,7.4-2.2,7.5-6.7C2238.6-1118.3,2234.5-1119.6,2230.6-1120.6
				L2230.6-1120.6z M2236.4-1136.7l13,10.2C2247.6-1132.2,2243.9-1135,2236.4-1136.7L2236.4-1136.7z M2205.2-1120.7l-1.1-1.7
				c-0.5,0.6-0.8,1.2-1.1,1.9c-0.1,0.5,0.5,1.1,0.8,1.6L2205.2-1120.7z M2287.4-962.8c-7.4,0.1-14-1.8-19.4-7.2
				c-6.1-6.1-11.4-12.9-18-18.5c-2.9-2.4-4.6-6.8,1.8-8.4c5.6-1.4,9.9-4.4,14-8.6c6.9-7.1,10-6.9,16.9-0.2c1.4,1.4,2.9,4.4,5.2,0.9
				c3-4.6,6.9-3.4,10.6-1.4c6.7,3.5,12.7,8.3,20.5,9.4c3.2,0.5,3.5,3.1,2.9,5.9C2319.6-978.5,2300.4-962.8,2287.4-962.8
				L2287.4-962.8z M2286.8-977.4c3.1-0.9,7.1,0,7-3.9c-0.1-4.4-3.9-2.9-6.3-2.3c-3.6,0.8-6.3-0.2-9-2.5c-1.7-1.5-4.2-3-5.9-0.4
				c-1.9,3,0.9,4.6,3.2,5.6C2279.5-979.5,2283.4-978.5,2286.8-977.4L2286.8-977.4z M2335.9-1182.6c-3.7,2.9-5.8,6.8-3.8,11.4
				c2.1,4.9,6.7,3.9,10.7,3c3.2-0.8,6.3-2,9.3-3.5c23.1-10.9,51.9-1.8,65.8,16.7c1.9,2.6,3.9,6.4,7.7,3.9c3.7-2.4,2.7-6.3,0.6-9.5
				c-13.4-20.2-31.8-32.1-52.9-33.9C2357.2-1194.3,2345.9-1190.3,2335.9-1182.6z M2266-1034.5c0.9-2.4-1.3-4.6-3.5-5.1
				c-9.3-2.1-7.3-8.5-5.7-14.7c1-4.7,2.9-9.1,5.6-13c3.2-4.5,4-10.3,3.9-16c0-2.5-1.4-4.5-3.9-5c-2.8-0.5-4.3,1.6-4.8,3.9
				c-2.8,12.6-12,22.3-14.4,35.4c-2.3,12.5,0,17.7,13.7,18C2259.7-1031.4,2264.3-1030,2266-1034.5z M2293.2-1037
				c-0.7-4.9-6.1-6.5-10.6-7c-3.3-0.3-6.4,1.1-6.5,5.6c-0.1,6.5,4.4,6.3,8.5,6.5C2288.6-1032.2,2293.9-1031.7,2293.2-1037
				L2293.2-1037z"/>
		</defs>
		<clipPath id="SVGID_00000065776871311766276250000014690698188994473885_">
			<use xlink:href="#SVGID_1_"  style="overflow:visible;"/>
		</clipPath>
		<g id="Mask_Group_2" style="clip-path:url(#SVGID_00000065776871311766276250000014690698188994473885_);">
			<rect id="Rectangle_100" x="1875.6" y="-752.1" class="st0" width="791" height="920.3"/>
		</g>
	</g>
	<rect id="Rectangle_102" x="1875.6" y="-126.8" class="st0" width="633" height="618"/>
	<rect id="Rectangle_147" x="2387.6" y="489.2" class="st3" width="870" height="503.2"/>
	<rect id="Rectangle_103" x="2908.6" y="-752.1" class="st2" width="407" height="625.3"/>
	<rect id="Rectangle_146" x="3257.6" y="-128.8" class="st0" width="58" height="1719"/>
	<rect id="Rectangle_145" x="1875.6" y="489.2" class="st0" width="58" height="1101"/>
</g>
<g id="Group_170" transform="translate(293.232 754.375)">
	<g id="Group_171" transform="translate(-58)">
		<rect id="Rectangle_124" x="1934.6" y="-107.8" class="st3" width="58" height="58"/>
		<rect id="Rectangle_126" x="1934.6" y="-223.8" class="st0" width="58" height="58"/>
		<rect id="Rectangle_127" x="1992.6" y="-165.8" class="st2" width="58" height="58"/>
		<rect id="Rectangle_128" x="2050.6" y="-107.8" class="st2" width="58" height="58"/>
		<rect id="Rectangle_134" x="2224.6" y="-107.8" class="st1" width="58" height="58"/>
		<rect id="Rectangle_130" x="2108.6" y="-223.8" class="st0" width="58" height="58"/>
		<rect id="Rectangle_133" x="2166.6" y="-165.8" class="st1" width="58" height="58"/>
		<rect id="Rectangle_135" x="2282.6" y="-165.8" class="st1" width="58" height="58"/>
		<rect id="Rectangle_132" x="2166.6" y="-223.8" class="st3" width="58" height="58"/>
		<rect id="Rectangle_131" x="2166.6" y="-281.8" class="st0" width="58" height="58"/>
		<rect id="Rectangle_129" x="2108.6" y="-107.8" class="st2" width="58" height="58"/>
		<rect id="Rectangle_136" x="2108.6" y="-165.8" class="st2" width="58" height="58"/>
	</g>
	<g id="Group_172" transform="translate(1441 683) rotate(180)">
		<rect id="Rectangle_124-2" x="-1816.6" y="1241.8" class="st1" width="58" height="58"/>
		<rect id="Rectangle_125" x="-1816.6" y="1183.8" class="st1" width="58" height="58"/>
		<rect id="Rectangle_126-2" x="-1816.6" y="1125.8" class="st1" width="58" height="58"/>
		<rect id="Rectangle_139" x="-1758.6" y="1067.8" class="st0" width="58" height="58"/>
		<rect id="Rectangle_127-2" x="-1758.6" y="1183.8" class="st2" width="58" height="58"/>
		<rect id="Rectangle_128-2" x="-1700.6" y="1241.8" class="st3" width="58" height="58"/>
		<rect id="Rectangle_150" x="-1816.6" y="1299.8" class="st0" width="58" height="58"/>
		<rect id="Rectangle_151" x="-1584.6" y="1299.8" class="st0" width="58" height="58"/>
		<rect id="Rectangle_134-2" x="-1526.6" y="1241.8" class="st1" width="58" height="58"/>
		<rect id="Rectangle_137" x="-1468.6" y="1241.8" class="st1" width="58" height="58"/>
		<rect id="Rectangle_130-2" x="-1642.6" y="1125.8" class="st2" width="58" height="58"/>
		<rect id="Rectangle_138" x="-1700.6" y="1125.8" class="st2" width="58" height="58"/>
		<rect id="Rectangle_133-2" x="-1584.6" y="1183.8" class="st1" width="58" height="58"/>
		<rect id="Rectangle_135-2" x="-1468.6" y="1183.8" class="st1" width="58" height="58"/>
		<rect id="Rectangle_132-2" x="-1584.6" y="1125.8" class="st3" width="58" height="58"/>
		<rect id="Rectangle_131-2" x="-1584.6" y="1067.8" class="st2" width="58" height="58"/>
		<rect id="Rectangle_136-2" x="-1642.6" y="1183.8" class="st3" width="58" height="58"/>
	</g>
	<g id="Group_173" transform="translate(975)">
		<rect id="Rectangle_128-3" x="2050.6" y="-107.8" class="st2" width="58" height="58"/>
		<rect id="Rectangle_134-3" x="2224.6" y="-107.8" class="st0" width="58" height="58"/>
		<rect id="Rectangle_137-2" x="2282.6" y="-107.8" class="st0" width="58" height="58"/>
		<rect id="Rectangle_130-3" x="2108.6" y="-223.8" class="st1" width="58" height="58"/>
		<rect id="Rectangle_133-3" x="2166.6" y="-165.8" class="st3" width="58" height="58"/>
		<rect id="Rectangle_142" x="2166.6" y="-107.8" class="st2" width="58" height="58"/>
		<rect id="Rectangle_135-3" x="2282.6" y="-165.8" class="st0" width="58" height="58"/>
		<rect id="Rectangle_131-3" x="2166.6" y="-281.8" class="st2" width="58" height="58"/>
		<rect id="Rectangle_136-3" x="2108.6" y="-165.8" class="st2" width="58" height="58"/>
	</g>
	<g id="Group_174" transform="translate(465 625) rotate(180)">
		<rect id="Rectangle_128-4" x="-1700.6" y="1241.8" class="st2" width="58" height="58"/>
		<rect id="Rectangle_137-3" x="-1468.6" y="1241.8" class="st1" width="58" height="58"/>
		<rect id="Rectangle_130-4" x="-1642.6" y="1125.8" class="st1" width="58" height="58"/>
		<rect id="Rectangle_133-4" x="-1584.6" y="1183.8" class="st0" width="58" height="58"/>
		<rect id="Rectangle_142-2" x="-1584.6" y="1241.8" class="st2" width="58" height="58"/>
		<rect id="Rectangle_143" x="-1526.6" y="1183.8" class="st2" width="58" height="58"/>
		<rect id="Rectangle_144" x="-1526.6" y="1125.8" class="st2" width="58" height="58"/>
		<rect id="Rectangle_135-4" x="-1468.6" y="1183.8" class="st1" width="58" height="58"/>
		<rect id="Rectangle_131-4" x="-1584.6" y="1067.8" class="st2" width="58" height="58"/>
		<rect id="Rectangle_136-4" x="-1642.6" y="1183.8" class="st0" width="58" height="58"/>
	</g>
</g>
<g id="Menu" transform="translate(1559.232 812.375)">
	<rect id="Rectangle_7" x="1875.6" y="-674.8" class="st6" width="58" height="58"/>
	<line id="Line_1" class="st7" x1="1887" y1="-657.3" x2="1922.3" y2="-657.3"/>
	<line id="Line_2" class="st7" x1="1887" y1="-645.8" x2="1922.3" y2="-645.8"/>
	<line id="Line_3" class="st7" x1="1887" y1="-634.3" x2="1922.3" y2="-634.3"/>
</g>
<g id="taal" transform="translate(1617.232 812.375)">
	<rect id="Rectangle_6" x="1875.6" y="-674.8" class="st6" width="58" height="58"/>
	<g>
		<defs>
			<rect id="SVGID_00000038404071222084039990000014856521250383980443_" x="1875.6" y="-674.8" width="58" height="58"/>
		</defs>
		<clipPath id="SVGID_00000047038091088024921830000012752970997324132490_">
			<use xlink:href="#SVGID_00000038404071222084039990000014856521250383980443_"  style="overflow:visible;"/>
		</clipPath>
		
			<g id="Mask_Group_1" transform="translate(-1323)" style="clip-path:url(#SVGID_00000047038091088024921830000012752970997324132490_);">
			<g id="Group_4" transform="translate(1303.928 -19.689)">
				<path id="Path_25" d="M1878.1-657.1v62h91.1v-62H1878.1z M1914.1-639.4v-15.9h3.5v22.9H1880v-3.4h19.4l-19.4-13.1v-4.4
					l26.1,17.6h6.6l-28.9-19.6h6.7L1914.1-639.4z M1957-655.3h6.7l-29,19.5h6.6l26.1-17.6v4.4l-19.5,13.2h19.4v3.5H1930v-23h3.4
					v15.9L1957-655.3z M1967.5-599l-26.2-17.6h-6.6l29.1,19.6h-6.7l-23.7-15.9v15.9h-3.5v-22.9h37.5v3.4H1948l19.4,13L1967.5-599
					L1967.5-599z M1890.4-596.9h-6.7l29.1-19.6h-6.6L1880-599v-4.5l19.5-13H1880v-3.5h37.5v22.9h-3.4v-15.8L1890.4-596.9z"/>
			</g>
		</g>
	</g>
</g>
<g id="Group_158" transform="translate(2179.599 761.07)">
	<rect id="Rectangle_93" x="642.7" y="-517.1" class="st2" width="20.1" height="22.6"/>
	<rect id="Rectangle_94" x="790.8" y="-497.9" class="st2" width="20.1" height="22.6"/>
	<g id="Group_135" transform="translate(-1507.367 106.652)">
		<g id="Group_134">
			<g id="Group_127" transform="translate(84.02 0.021)">
				<path id="Path_197" class="st2" d="M1917.7-611.8l-13.4,63h-21l16.5,21h21l13.4-63L1917.7-611.8z"/>
				<path id="Path_198" class="st2" d="M1892.2-590.8L1892.2-590.8l4.5-21h-21L1892.2-590.8z"/>
				<path id="Path_199" class="st2" d="M1910.1-674.8l-13.4,63h21l8.9-42L1910.1-674.8z"/>
				<path id="Path_200" class="st6" d="M1896.7-611.8h21l-13.4,63h-21L1896.7-611.8h-21l13.4-63h21L1896.7-611.8z"/>
			</g>
			<g id="Group_129" transform="translate(126.038 0.021)">
				<g id="Group_128">
					<path id="Path_201" class="st2" d="M1892.2-590.8l4.5-21h-21L1892.2-590.8L1892.2-590.8z"/>
					<path id="Path_202" class="st2" d="M1923.9-641.2l-2.6-12.6l-16.5-21l12.9,63L1923.9-641.2L1923.9-641.2z"/>
					<path id="Path_203" class="st2" d="M1959.7-611.8l-13.4,63h-15.8l16.5,21h15.8l13.4-63L1959.7-611.8z"/>
					<path id="Path_204" class="st2" d="M1917.7-611.8l-13.4,63h-21l16.5,21h21l7.1-33.6L1917.7-611.8z"/>
					<path id="Path_205" class="st2" d="M1952.1-674.8l-13.4,63h21l8.9-42L1952.1-674.8z"/>
				</g>
			</g>
			<path id="Path_206" class="st6" d="M2064.7-611.8h21l-13.4,63h-15.8l-12.8-63l-13.4,63h-21l13.4-63h-21l13.4-63h15.7l12.9,63
				l13.4-63h21L2064.7-611.8L2064.7-611.8z"/>
			<g id="Group_130">
				<path id="Path_207" class="st2" d="M1892.2-590.8l4.5-21h-21L1892.2-590.8L1892.2-590.8z"/>
				<path id="Path_208" class="st2" d="M1926.6-653.8h-21l-8.9,42h21L1926.6-653.8z"/>
				<path id="Path_209" class="st2" d="M1959.7-611.8c-1.4,5.9-4.6,11.1-9.3,14.9c-4.5,3.8-10.2,6-16.2,6.1h-21l-8.9,42h-21l16.5,21
					h21l8.9-42h21c5.9-0.1,11.6-2.3,16.2-6.1c4.7-3.8,8-9,9.3-14.9v0L1959.7-611.8z"/>
				<path id="Path_210" class="st2" d="M1943.3-670.1c-0.5-0.4-0.9-0.9-1.4-1.2C1942.4-670.9,1942.8-670.5,1943.3-670.1z"/>
				<path id="Path_211" class="st2" d="M1964.1-632.8c1.1-5.4,0.2-10.8-3-14.9c-3.3-4.1-16.6-21-16.6-21c-0.4-0.5-0.8-1-1.3-1.4
					c0.5,0.5,0.9,0.9,1.3,1.4c3.2,4.1,4.1,9.5,3,14.9l-8.9,42h21v0v0L1964.1-632.8z"/>
				<path id="Path_212" class="st6" d="M1947.6-653.8c1.2-5.4,0.2-10.7-3-14.9c-3.3-4-8.3-6.3-13.5-6.2h-42l-13.4,63h21l-13.4,63h21
					l8.9-42h21c5.9-0.1,11.6-2.3,16.2-6.1c4.7-3.8,8-9,9.3-14.9v0h-21L1947.6-653.8z M1896.6-611.8l8.9-42h21l-8.9,42H1896.6z"/>
			</g>
			<g id="Group_133" transform="translate(210.066 0.021)">
				<g id="Group_132" transform="translate(0)">
					<g id="Group_131">
						<path id="Path_213" class="st2" d="M1892.2-590.8l4.5-21h-21L1892.2-590.8L1892.2-590.8z"/>
						<path id="Path_214" class="st2" d="M1906.4-632.8l15.3-27.2l-11.6-14.8l-8.9,42H1906.4z"/>
						<path id="Path_215" class="st2" d="M1944.5-611l24.1-42.8l-16.5-21l-29.6,52.5l-4.8,10.5h26.3l2.4,63h-21l16.5,21h21l-2.4-63
							L1944.5-611z"/>
						<path id="Path_216" class="st2" d="M1904.3-548.8h-21l16.5,21h21l4.5-21h0l-7.6-63L1904.3-548.8z"/>
					</g>
				</g>
				<path id="Path_217" class="st6" d="M1943.9-611.8l2.4,63h-21l-7.6-63l0,0l-13.4,63h-21l13.4-63h-21l13.4-63h21l-8.9,42h5.2
					l23.6-42h22.1l-29.6,52.5l-4.8,10.5L1943.9-611.8L1943.9-611.8z"/>
			</g>
		</g>
	</g>
	<g id="Group_152" transform="translate(-1224.173 106.663)">
		<path id="Path_218" class="st2" d="M2005.3-632.9L2005.3-632.9l-6.7-8.3l-3.5-4.4c3.2,4.8,5.7,10,7.5,15.5
			c2.2,6.6,3.3,13.5,3.3,20.4c0,7.2-1.2,14.4-3.6,21.3c-9.1,26.2-33.8,43.9-61.6,43.8c-17.7,0-34.6-7.2-46.9-19.9l2.7,3.4l0,0
			l5.5,7.1c12.3,16.5,31.7,26.3,52.3,26.2c35.9,0.1,65-28.9,65.1-64.8C2019.5-607.2,2014.5-621.4,2005.3-632.9z"/>
		<g id="Group_151" transform="translate(0 0)">
			<g id="Group_136">
				<path id="Path_219" class="st6" d="M1875.6-609.7c0-36,29.1-65.1,65.1-65.1c0,0,0,0,0,0c36,0,65.1,29.1,65.1,65.1c0,0,0,0,0,0.1
					c0,36-29.1,65.1-65.1,65.1c0,0,0,0,0,0C1904.8-544.5,1875.7-573.7,1875.6-609.7C1875.7-609.6,1875.7-609.7,1875.6-609.7"/>
			</g>
			<g id="Group_150" transform="translate(17.484 17.536)">
				<g id="Group_138">
					<g id="Group_137">
						<path id="Path_220" class="st2" d="M1875.6-627.2c0-26.3,21.3-47.6,47.6-47.6c0,0,0,0,0,0c26.3,0,47.6,21.3,47.6,47.6
							c0,0,0,0,0,0c0,26.3-21.3,47.6-47.6,47.6c0,0,0,0,0,0C1897-579.6,1875.7-600.9,1875.6-627.2
							C1875.6-627.2,1875.6-627.2,1875.6-627.2"/>
					</g>
				</g>
				<g id="Group_149" transform="translate(9.308 21.455)">
					<g id="Group_139" transform="translate(17.083)">
						<path id="Path_221" class="st6" d="M1907.1-673c0.1,0.2,0.1,0.4,0.1,0.5c0.1,0.8,0,1.5-0.1,2.3c-0.2,0.3-0.5,0.5-0.9,0.3
							c-0.4-0.4-0.3-1.6-1.2-1.2c-0.6,0.8-0.8,1.9-0.5,2.9c0.2,0.8,0.8,1.6,1.5,2c0.4,0.1,0.8,0.1,1.2,0.1c1.4,0.5,1.2,2.6,2.7,3.2
							c1.1,0.4,2.4,0.3,3.4-0.3c0.7-0.2,0.7,0.2,0.7,0.7c-0.1,1.3-0.5,2.5-1.2,3.6c-0.3,0.7-0.6,1.4-0.8,2.1
							c-0.4,1.7-0.2,3.4,0.5,4.9c0.7,0.9,1.7,1.6,2.8,2c0.7,0.8-0.5,1-0.9,1.4c-1.1,1.4-1.4,3.2-0.8,4.8c0.3,0.7,1.1,1.5,0.4,2.3
							c-0.9,1.6-2.2,2.8-3.8,3.7c-0.3,0.3-0.7,0.5-1.1,0.8c-3.7,2.9-8.2,3.9-12.4,4.9c-2.9,0.4-7.8-0.2-8.9-1.5
							c-1-1.3-1.2-1-4.1-1.8c-3.1-1-5.6-3.5-6.5-6.7c-1.3-5.5-1.1-10.5-1.5-16.1c0-1.1-0.4-2.7,0.4-3.4c1.2-1.1,2.8-1.5,4.4-1
							c1.1,0.2,2.1,1.5,2.8,0.1c0.1-1-1.7-2.4-2.9-2.5c-1.4-0.4-2.9,0-3.9,1l-0.5,1c-0.1-3,0.4-5.9,1.6-8.7c0.3-1,0.9-1.9,1.6-2.6
							c0.9-0.5,0.9-0.4,1-0.3c0.3,0,0.2,0.5,0.1,0.9c-0.4,1.1-1.1,2.5-1.8,2.7l-0.3,0.1c-0.2,0.1-0.3,0.4-0.2,0.6
							c0,0.1,0.1,0.1,0.1,0.1c0.7,0.5,1.6,0.6,2.3,0.1c1.6-0.8,2.9-2.1,3.8-3.6c0.9-0.4,1.6,1.1,1.8,2c0.1,0.6-0.1,1.3-0.5,1.8
							c-1,0.8-2.5-1.3-2.7,0.7c0.1,1,0.7,1.8,1.5,2.3c1.5,0.9,3.4,0.9,4.9,0.1c1.8-1,3-2.7,3.4-4.7c1.1,1.1-1.7,3.7,0.8,3.1
							c1.3-0.6,2.2-1.8,2.6-3.2c0.4,0,0.4,1.3,0.1,2c-0.3,0.2-0.8,0.8-0.4,1.2c0.4,0.5,0.9,0,1.4-0.1c0.5-0.3,1.1-0.9,1.5-1.1
							c0.3-0.1,0,0.9,0.5,1c1.9-0.6,3.3-2.2,3.8-4.1c0.1-0.5,0.3-1.2,0.5-1.2c0.9-0.3,2-0.1,2.8-0.9
							C1906.4-674.9,1907-673.4,1907.1-673"/>
					</g>
					<g id="Group_141" transform="translate(18.954 9.548)">
						<g id="Group_140">
							<path id="Path_222" class="st2" d="M1907.7-670c0.1,0.2,0,0.5-0.2,0.6c0,0-0.1,0-0.1,0l-0.5-0.1c-1.5-2.4-4.3-3.6-7.1-3.2
								c-1.4-0.1-2.5,1.3-4,1c-0.4-0.3-0.3-1-0.1-1.4c1.9-1.7,4.7-2.2,7.1-1.3C1904.7-673.5,1906.9-672.2,1907.7-670 M1885.2-667.6
								c0.9,1.1,1.2,2.6,0.9,3.9c-0.1,0.4-0.5,0.6-0.9,0.5c-0.6,0.9-1.5,1.6-2.5,2c-1.1,0.1-2.6,0-3.2-1.3c-0.6-0.9-0.8-2-0.3-3
								c0.1-0.4,0.7-0.9,0.4-1c-0.8,0.4-1.3,1.1-1.3,2c-0.1,0.9,0.4,2.1-0.1,2.2c-1.5-0.1-0.9-3.7-2.5-4.5c-0.3-0.4,0.3-0.5,0.8-0.8
								c1.6,0.2,2.6-2.1,4.4-2C1882.5-669.4,1884.1-668.8,1885.2-667.6 M1904.9-666.4c0.7,1.4,3-1.1,2.2,1.3
								c-0.3,0.8-1.1,1.3-1.6,1.1c-0.7-0.5-1.2-1-1.7-1.6l-0.7-0.8c-0.5-0.7-1.7-1.1-0.4,0.2l1.6,2.9c0.1,0.2,0.1,0.4,0,0.6
								c-0.1,0.1-0.2,0.1-0.3,0.1c-0.5-0.1-1.1-0.1-1.5,0.2c-0.9,1-2.3,1.3-3.5,0.9c-1.1-0.5-1.8-1.6-1.8-2.7c0.3-1.3,0.2-1.3,0.1-1
								c-1.1,1.4,0.1,3.1-0.3,3.2c-1.6-0.1-1-2.5-2.2-3.4c-0.3-0.6-0.3-1.2,0.1-1.8c1.2-1.3,3-0.5,4.5-1.8
								C1901.4-670.1,1903.5-668.1,1904.9-666.4 M1886.8-661.1c0.3,1.1-0.1,2.3-0.9,3.1c-0.3,0.8-0.4,1.6-0.4,2.4
								c-0.1,0.3,1.7,0.3,1.4,1.3c-0.7,0.3-1.6,0.3-2.3,0c-0.5-0.2-0.8-0.7-0.8-1.2c0.5-1.3,0.4-3,1.7-4.1
								C1886-659.9,1885.9-661.9,1886.8-661.1 M1890.5-654.8c0,0.2-0.1,0.4-0.2,0.5c-0.6,0.2-1.3,0.1-1.8-0.1
								c-0.1-0.3-0.1-0.6-0.1-0.9C1889-655.9,1889.9-655.4,1890.5-654.8 M1894.1-648.7c-1.8,3.1-3.4,3.7-5.3,3.3
								c-1.6-0.1-2.6-2.6-3.9-3.2c-0.2-0.2-0.2-0.4-0.1-0.7c0.1-0.3,1.2-0.3,1.6-0.7c0.7-0.7,1.2-1.6,2.3-1.2
								c0.4,0.4,1.1,1.6,1.3,0.4c0.9-0.8,2.3,0.9,2.7,1l1.4,0.3C1894.3-649.5,1894.3-648.8,1894.1-648.7"/>
						</g>
					</g>
					<g id="Group_142" transform="translate(22.632 39.886)">
						<path id="Path_223" class="st6" d="M1909.9-669.4c0,1.3-0.5,2.6-1.4,3.5l-0.2,0.3c-1.6,1.9-3.7,3.3-6,4.2
							c-0.3,0-0.5,0.2-0.9,0.2c-2.9,0.4-6.3,0.3-8.3-2.3c-1-1.2-2.3-3.4-1.7-4.2c0.1-0.1,0.1-0.1,0.2-0.1c5.1-1.4,9.8-3.7,13.9-6.9
							c0.2-0.1,0.5-0.2,0.5-0.1C1908.4-674.2,1910-671.1,1909.9-669.4 M1882.8-671c1,0.5,2.1,0.7,2.8,1.4c0.4,0.4,0.6,1,0.3,1.5
							c-1.4,2.1-3.3,3.8-5.7,4.9c-1.2,0.6-2.6,0.5-3.7-0.1c-1.2-0.8-1.1-2.2-0.8-3.4c0.5-1.5,1.4-3,2.5-4.2c0.5-0.4,0.9-1.1,1.6-1.2
							C1881-671.8,1881.9-671.5,1882.8-671"/>
					</g>
					<g id="Group_143" transform="translate(0 45.27)">
						<path id="Path_224" class="st6" d="M1896.5-674.4c-0.8,2-1.3,5.2,0.2,7c1.8,2,4.7,2.1,7.1,1.3c1.3-0.5,2.6-1,3.8-1.6
							c0.5,0.9,1,2.1,2.1,2.2c1.1,0.1,2.1-0.5,2.5-1.5c0,0,0.2-0.9,0.5-0.9c3.9,3.8,9.7,4.9,14.7,2.6c2.2-0.9,4.2-2.2,5.8-3.9
							c2-1.5,3-4.8,6.3-3.9c4.2,1,7.8,3.7,10,7.3c0.5,0.8,0.9,1.6,1.2,2.4c-6.1,7.3-14.2,12.7-23.4,15.4c0.1-1.4,0.4-2.8,0.9-4.2
							c0.5-2.2,2.1-6.1,2-6.4c-0.1-0.2-0.1-0.7-0.5-0.5c-0.6,0.4-1,0.9-1.2,1.5c-1.8,3.2-2.6,6.7-3.7,10.2
							c-3.5,0.8-7.1,1.2-10.8,1.2c-10.4,0-20.4-3.3-28.7-9.5c0.9-1.3,1.7-2.6,2.7-3.9c1.2-1.9,3.2-3.5,4.6-5.4
							c0.1-0.1,0.2-0.3-0.3-0.3l-0.2-0.1l-0.2,0.1c-0.3,0-2.4,2.6-3.8,3.4c-0.1,0-0.1,0-0.1-0.1c0.2-2.2,2.4-5.7,2.1-5.9
							c-0.9-1-1.7,1.1-2,1.5c-1.1,2.1-2.2,4.4-3.5,6.6c-0.4,0.9-0.8,1.7-1.2,2.6c-2.9-2.4-5.4-5.1-7.6-8.1l2.1-2.1
							c5-4.1,11-7.7,17.6-7.2C1895.8-674.8,1896.5-674.9,1896.5-674.4"/>
					</g>
					<g id="Group_144" transform="translate(33.473 50.883)">
						<path id="Path_225" class="st6" d="M1876.6-674.2c0.1,0.3,0,0.8-0.5,0.7l-0.3-0.3c-0.1-0.3,0-0.7,0.3-0.9
							C1876.5-674.9,1876.6-674.5,1876.6-674.2"/>
					</g>
					<g id="Group_146" transform="translate(26.457 63.94)">
						<g id="Group_145">
							<path id="Path_226" class="st2" d="M1879.7-673.7c0.4,0.6,0.6,1.4,0.4,2.1c-0.3,0.9-1,1.5-1.8,1.6l-0.8-0.1
								c-0.8-0.4-1.6-0.9-1.7-1.9c-0.1-0.5-0.1-1.1,0.1-1.5c0.3-0.7,0.9-1.2,1.6-1.3C1878.4-674.9,1878.9-674.2,1879.7-673.7"/>
						</g>
					</g>
					<g id="Group_147" transform="translate(25.027 16.761)">
						<path id="Path_227" class="st6" d="M1878.9-673.1c-0.6-1-1.7-1.7-2.8-1.6C1877.3-675,1878.5-674.3,1878.9-673.1 M1895.6-672.3
							c0.2,0.4,0.1,0.8-0.3,1c0,0-0.1,0-0.1,0.1c-0.3,0.2-0.5,0-0.9-0.1c-0.2-0.2-0.4-0.9,0-1.2c0.2-0.3,0.6-0.5,0.9-0.3
							C1895.4-672.7,1895.5-672.5,1895.6-672.3 M1877-672.5c0.4,0.3,0.5,0.8,0.3,1.2c-0.1,0.3-0.4,0.5-0.7,0.4c-0.4-0.1-1-0.3-1-1
							c0-0.4,0.2-0.7,0.5-0.9C1876.5-672.7,1876.7-672.6,1877-672.5 M1883.4-655c0.3,0,0.9-0.4,1.1,0.1c0.1,0.9-1.7,0.4-2,0.2
							c-0.3-0.1-1.3-0.3-0.7-0.9C1882.2-655.9,1882.8-654.8,1883.4-655"/>
					</g>
					<g id="Group_148" transform="translate(27.638 65.239)">
						<path id="Path_228" class="st6" d="M1876.6-674.4c-0.1,0.3-0.1,0.8-0.4,1c-0.2,0.1-0.4-0.1-0.5-0.3c0-0.4,0-0.9,0.4-1
							c0.2-0.1,0.4,0,0.5,0.2C1876.6-674.5,1876.6-674.5,1876.6-674.4"/>
					</g>
				</g>
			</g>
		</g>
	</g>
	<g id="Group_157" transform="translate(-1093.946 106.652)">
		<g id="Group_153" transform="translate(84.02 0.021)">
			<path id="Path_229" class="st2" d="M1908.7-569.8h21l8.9-42h-21L1908.7-569.8z"/>
			<path id="Path_230" class="st2" d="M1892.2-590.8L1892.2-590.8l4.5-21h-21L1892.2-590.8z"/>
			<path id="Path_231" class="st2" d="M1959.7-611.8l-8.9,42c-1.3,5.9-4.6,11.1-9.3,14.8c-4.5,3.8-10.2,6-16.2,6.1h-21
				c-5.2,0.2-10.2-2.1-13.5-6.1c0,0,13.3,16.9,16.5,21c3.3,4,8.3,6.3,13.5,6.2h21c5.9-0.1,11.7-2.3,16.2-6.2c4.7-3.8,8-9,9.3-14.9
				l8.9-42L1959.7-611.8z"/>
			<path id="Path_232" class="st2" d="M1905.6-653.8l-8.9,42h21l8.9-42H1905.6z"/>
			<path id="Path_233" class="st2" d="M1961.1-647.6c-3.2-4.1-16.5-21-16.5-21c3.2,4.1,4.1,9.5,3,14.9l-8.9,42h21l4.5-21
				C1965.3-638.2,1964.4-643.5,1961.1-647.6z"/>
			<path id="Path_234" class="st6" d="M1947.6-653.8c1.2-5.4,0.2-10.8-3-14.9c-3.3-4-8.3-6.3-13.5-6.2h-21
				c-5.9,0.1-11.6,2.3-16.2,6.2c-4.7,3.8-8,9-9.3,14.9l-8.9,42h21l-8.9,42c-1.1,5.4-0.2,10.7,3,14.8c3.3,4,8.3,6.3,13.5,6.1h21
				c5.9-0.1,11.6-2.3,16.2-6.1c4.7-3.8,8-9,9.3-14.8l8.9-42h-21L1947.6-653.8z M1929.7-569.8h-21l8.9-42h-21l8.9-42h21l-8.9,42h21
				L1929.7-569.8z"/>
		</g>
		<g id="Group_155" transform="translate(0 6.16)">
			<g id="Group_154">
				<path id="Path_235" class="st2" d="M1926.6-659.9h-21l-8.9,42h21L1926.6-659.9z"/>
				<path id="Path_236" class="st2" d="M1947.6-659.9l-8.9,42h21l4.5-21c1.1-5.4,0.2-10.8-3-14.9c-3.3-4.1-16.6-21-16.6-21
					C1947.8-670.7,1948.7-665.3,1947.6-659.9z"/>
				<path id="Path_237" class="st2" d="M1959.7-617.9c-1.4,5.9-4.6,11.1-9.3,14.9c-4.5,3.8-10.2,6-16.2,6.1h-21l-8.9,42h-21l16.5,21
					h21l8.9-42h21c5.9-0.1,11.6-2.3,16.2-6.1c4.7-3.8,8-9,9.3-14.9v0L1959.7-617.9z"/>
				<path id="Path_238" class="st2" d="M1892.2-596.9l4.5-21h-21L1892.2-596.9L1892.2-596.9z"/>
			</g>
		</g>
		<path id="Path_239" class="st6" d="M1947.6-653.8c1.2-5.4,0.2-10.7-3-14.9c-3.3-4-8.3-6.3-13.5-6.2h-42l-13.4,63h21l-13.4,63h21
			l8.9-42h21c5.9-0.1,11.6-2.3,16.2-6.1c4.7-3.8,8-9,9.3-14.9v0h-21L1947.6-653.8z M1896.6-611.8l8.9-42h21l-8.9,42H1896.6z"/>
		<g id="Group_156" transform="translate(168.046 0.021)">
			<path id="Path_240" class="st2" d="M1947.6-653.8l-8.9,42h21l4.5-21c1.1-5.4,0.2-10.8-3-14.9c-3.3-4.1-16.6-21-16.6-21
				C1947.8-664.5,1948.7-659.2,1947.6-653.8z"/>
			<path id="Path_241" class="st2" d="M1926.6-653.8h-21l-8.9,42h21L1926.6-653.8z"/>
			<path id="Path_242" class="st2" d="M1959.7-611.8c-1.4,5.9-4.6,11.1-9.3,14.9c-4.5,3.8-10.2,6-16.2,6.1h-21l-8.9,42h-21l16.5,21
				h21l8.9-42h21c5.9-0.1,11.6-2.3,16.2-6.1c4.7-3.8,8-9,9.3-14.9v0L1959.7-611.8z"/>
			<path id="Path_243" class="st2" d="M1892.2-590.8l4.5-21h-21L1892.2-590.8L1892.2-590.8z"/>
			<path id="Path_244" class="st6" d="M1947.6-653.8c1.2-5.4,0.2-10.8-3-14.9c-3.3-4-8.3-6.3-13.5-6.2h-42l-13.4,63h21l-13.4,63h21
				l8.9-42h21c5.9-0.1,11.6-2.3,16.2-6.1c4.7-3.8,8-9,9.3-14.9v0h-21L1947.6-653.8z M1896.6-611.8l8.9-42h21l-8.9,42H1896.6z"/>
		</g>
	</g>
</g>
<g id="Group_161" transform="translate(352.232 1379.462)">
	<rect id="Rectangle_98" x="1875.6" y="-674.9" class="st2" width="1033" height="177"/>
	<text transform="matrix(1 0 0 1 1904.6481 -527.8906)" class="st1" style="font-family:'BeniBlack'; font-size:186px;">16|17|18 juni 2023</text>
</g>
<g id="Group_162" transform="translate(1381.403 1379.462)">
	<rect id="Rectangle_99" x="1879.5" y="-674.9" class="st3" width="290" height="177"/>
	<text transform="matrix(1 0 0 1 1896.4772 -586.8906)" class="st2" style="font-family:'BeniRegular'; font-size:93px;">MEGALAND</text>
	<text transform="matrix(1 0 0 1 1896.4772 -523.8906)" class="st2" style="font-family:'BeniRegular'; font-size:93px;">LANDGRAAF</text>
</g>
</svg>
