<?xml version="1.0" encoding="utf-8"?>
<!-- Generator: Adobe Illustrator 26.5.0, SVG Export Plug-In . SVG Version: 6.00 Build 0)  -->
<svg version="1.1" id="logo" xmlns="http://www.w3.org/2000/svg" xmlns:xlink="http://www.w3.org/1999/xlink" x="0px" y="0px"
	 width="684.8px" height="147.4px" viewBox="0 0 684.8 147.4" style="enable-background:new 0 0 684.8 147.4;" xml:space="preserve"
	>
<style type="text/css">
	.st0{fill:none;}
	.st1{fill:#130092;}
	.st2{fill:#FFFFFF;}
</style>
<rect x="-74" y="-65.1" class="st0" width="836" height="278.7"/>
<g>
	<polygon class="st1" points="133.3,63.8 120.1,125.6 99.6,125.6 115.8,146.2 136.4,146.2 149.5,84.4 	"/>
	<polygon class="st1" points="108.3,84.4 108.3,84.4 112.7,63.8 92.1,63.8 	"/>
	<polygon class="st1" points="125.8,2 112.7,63.8 133.3,63.8 142,22.6 	"/>
	<path class="st2" d="M112.7,63.8h20.6l-13.1,61.8H99.6L112.7,63.8H92.1L105.2,2h20.6L112.7,63.8z"/>
	<polygon class="st1" points="149.5,84.4 153.9,63.8 133.3,63.8 	"/>
	<polygon class="st1" points="180.6,35 178,22.6 161.8,2 174.5,63.8 	"/>
	<polygon class="st1" points="215.6,63.8 202.5,125.6 187.1,125.6 203.3,146.2 218.7,146.2 231.8,84.4 	"/>
	<polygon class="st1" points="174.5,63.8 161.3,125.6 140.7,125.6 156.9,146.2 177.5,146.2 184.5,113.2 	"/>
	<polygon class="st1" points="208.2,2 195.1,63.8 215.6,63.8 224.4,22.6 	"/>
	<path class="st2" d="M195.1,63.8h20.6l-13.1,61.8h-15.4l-12.6-61.8l-13.1,61.8h-20.6L154,63.8h-20.6l13-61.8h15.4l12.6,61.8
		L187.6,2h20.6L195.1,63.8L195.1,63.8z"/>
	<polygon class="st1" points="25.9,84.4 30.3,63.8 9.7,63.8 	"/>
	<polygon class="st1" points="59.7,22.6 39.1,22.6 30.3,63.8 50.9,63.8 	"/>
	<path class="st1" d="M92.1,63.8C91,69,87.8,74.3,83,78.3c-4.9,4-10.6,6-15.8,6H46.5l-8.8,41.2H17.2l0,0
		c5.4,6.9,10.8,13.7,16.2,20.6H54l8.8-41.2h20.6c5.3,0,11-2,15.8-6c4.9-4,8-9.3,9.1-14.6l0,0L92.1,63.8z"/>
	<path class="st1" d="M76,6.6c-0.4-0.4-0.9-0.8-1.4-1.2C75.1,5.8,75.6,6.2,76,6.6z"/>
	<path class="st1" d="M96.5,43.2c1.1-5.3,0.2-10.5-2.9-14.6C90.3,24.6,77.3,8,77.3,8c-0.4-0.5-0.8-1-1.3-1.4C76.4,7,76.9,7.5,77.3,8
		c3.2,4,4.1,9.3,2.9,14.6l-8.7,41.2h20.6l0,0l0,0L96.5,43.2z"/>
	<path class="st2" d="M80.2,22.6c1.1-5.3,0.2-10.5-2.9-14.6c-3.2-4-8-6-13.3-6H22.9L9.7,63.8h20.6l-13.1,61.8h20.6l8.8-41.2h20.6
		c5.3,0,11-2,15.8-6c4.9-4,8-9.3,9.1-14.6l0,0H71.5L80.2,22.6z M30.3,63.8L39,22.6h20.6l-8.7,41.2C50.9,63.8,30.3,63.8,30.3,63.8z"
		/>
	<g>
		<polygon class="st1" points="231.9,84.4 236.2,63.8 215.6,63.8 		"/>
		<polygon class="st1" points="260.8,16.5 249.4,2 240.6,43.2 245.8,43.2 		"/>
		<polygon class="st1" points="290.7,74.1 298.4,74.1 298.4,52 290.2,52 306.8,22.6 290.5,2 261.6,53.5 256.8,63.8 262,63.8 
			278.7,63.8 278.7,74.1 283,74.1 284.9,125.6 264.3,125.6 280.5,146.2 301.1,146.2 298.8,84.4 		"/>
		<polygon class="st1" points="243.7,125.6 223.1,125.6 239.3,146.2 259.9,146.2 264.3,125.6 264.3,125.6 256.8,63.8 		"/>
	</g>
	<path class="st2" d="M282.6,63.8l2.3,61.8h-20.6l-7.5-61.8l0,0l0,0l-13.1,61.8h-20.6l13.1-61.8h-20.6L228.8,2h20.6l-8.8,41.2h5.1
		L268.9,2h21.6l-29,51.5l-4.8,10.3h5.1l0,0l0,0H282.6z"/>
	<path class="st1" d="M414.1,43.4l-12.7-14.9c7,10,11.2,22.2,11.2,35.3c0,34.2-27.9,61.8-62.4,61.8c-16.6,0-31.6-6.4-42.8-16.8
		c0,0,0,0-0.1-0.1s-0.2-0.1-0.2-0.2c-0.2-0.2-0.4-0.4-0.6-0.6l-0.1-0.1l10.3,12.2c11.2,16,29.9,26.5,51,26.5
		c34.3,0,62.2-27.7,62.2-61.9C429.8,68.7,423.9,54.3,414.1,43.4z"/>
	<g>
		<path class="st2" d="M287.9,63.8c0-34.2,27.9-61.8,62.4-61.8s62.4,27.6,62.4,61.8s-27.9,61.8-62.4,61.8S287.9,98,287.9,63.8"/>
	</g>
	<polygon class="st1" points="529.8,105 550.3,105 559.1,63.8 538.5,63.8 	"/>
	<g>
		<g>
			<path class="st1" d="M304.6,63.8c0-25,20.4-45.2,45.6-45.2s45.6,20.2,45.6,45.2S375.4,109,350.2,109
				C325,109,304.6,88.8,304.6,63.8"/>
		</g>
		<g>
			<g>
				<path class="st2" d="M360.2,40.7c0.1,0.3,0.1,0.5,0.1,0.5c0.1,0.7,0,1.5-0.1,2.2c-0.1,0.3-0.5,0.4-0.8,0.3
					c-0.4-0.4-0.3-1.6-1.1-1.1c-0.6,0.7-0.6,1.8-0.5,2.8c0.1,0.7,0.7,1.5,1.5,1.9c0.3,0.1,0.7,0.1,1.1,0.1c1.4,0.5,1.1,2.5,2.7,3.1
					c1.1,0.3,2.2,0.3,3.3-0.3c0.6-0.2,0.6,0.2,0.6,0.6c0,1.3-0.5,2.4-1.1,3.5c-0.3,0.8-0.6,1.3-0.7,2c-0.5,1.6-0.1,3.4,0.5,4.8
					c0.5,0.7,1.6,1.5,2.8,1.9c0.6,0.7-0.5,0.9-0.8,1.4c-1.1,1.3-1.3,3.4-0.7,4.7c0.3,0.6,1,1.5,0.4,2.2c-0.8,1.6-2.2,2.7-3.7,3.6
					c-0.5,0.4-0.7,0.5-1,0.7c-3.6,2.8-8,3.9-12.1,4.8c-2.9,0.4-7.6-0.2-8.7-1.5c-0.9-1.3-1.1-0.9-4.1-1.7c-2.9-0.8-5.6-3.5-6.4-6.5
					c-1.3-5.3-1-10.2-1.5-15.6c0-1-0.4-2.7,0.4-3.3c1-1.1,2.8-1.3,4.3-0.9c1,0.2,2,1.5,2.8,0.1c0.1-0.9-1.7-2.3-2.9-2.4
					c-1.4-0.3-3,0-3.9,0.9l-0.5,0.9c-0.2-3.1,0.7-6.6,1.6-8.4c0.3-0.9,0.7-1.7,1.6-2.5c0.8-0.5,0.8-0.4,0.9-0.3
					c0.3,0,0.2,0.5,0.1,0.8c-0.4,1-1,2.4-1.8,2.7l-0.3,0.1c-0.3,0.1-0.3,0.5-0.1,0.7c0.4,0.4,1.4,0.6,2.2,0.1c1.4-0.5,2.8-2,3.7-3.5
					c0.8-0.4,1.6,1,1.8,1.9c0.1,0.6-0.1,1.3-0.5,1.7c-0.9,0.7-2.4-1.3-2.7,0.6c0,0.9,0.7,1.8,1.5,2.2c1.5,0.7,3.2,0.9,4.8,0.1
					c1.9-1.1,2.9-2.7,3.3-4.6c1,1-1.7,3.6,0.7,3c1.4-0.5,2.1-1.9,2.5-3.1c0.4,0,0.4,1.3,0.1,1.9c-0.3,0.2-0.7,0.7-0.4,1.1
					c0.4,0.5,0.8,0,1.4-0.1c0.5-0.3,1-0.8,1.5-1c0.3-0.1,0,0.8,0.5,0.9c1.7-0.5,3.3-2.1,3.7-4c0.1-0.5,0.3-1.1,0.5-1.1
					c0.8-0.3,1.9-0.1,2.8-0.8C359.6,38.9,360.1,40.4,360.2,40.7"/>
			</g>
			<g>
				<path class="st1" d="M362.7,53c0.1,0.3,0,0.5-0.3,0.6l-0.5-0.1c-1.7-2.4-4.4-3.5-6.9-3.1c-1.4-0.1-2.4,1.3-4,0.9
					c-0.4-0.3-0.3-0.9-0.1-1.4c1.9-1.7,4.6-2.1,6.9-1.3C359.7,49.5,361.8,50.8,362.7,53 M340.6,55.3c0.5,0.4,1.4,2.3,0.8,3.9
					c-0.1,0.4-0.5,0.5-0.8,0.5c-0.6,0.9-1.4,1.6-2.4,1.9c-1,0.1-2.5,0-3.1-1.3c-0.5-0.7-0.8-2-0.3-2.9c0.1-0.4,0.6-0.8,0.4-0.9
					c-0.7,0.2-1.1,1.1-1.3,1.9c-0.1,0.8,0.4,2-0.1,2.1c-1.5-0.1-0.8-3.6-2.4-4.4c-0.3-0.4,0.3-0.5,0.7-0.7c1.6,0.2,2.5-2,4.3-1.9
					C338.1,53.5,339.5,54.1,340.6,55.3 M359.9,56.4c0.6,1.4,3-1,2.1,1.3c-0.3,0.7-1,1.3-1.6,1s-1.1-1-1.7-1.6l-0.6-0.7
					c-0.5-0.6-1.7-1-0.4,0.2l1.6,2.8c0.2,0.3,0,0.6-0.3,0.6c-0.5-0.1-0.9-0.1-1.5,0.2c-0.7,1-2.3,1.1-3.4,0.8
					c-1-0.5-1.7-1.5-1.8-2.7c0.3-1.3,0.2-1.3,0.1-0.9c-1,1.4,0.1,3-0.3,3.1c-1.6-0.1-0.9-2.4-2.1-3.3c-0.2-0.4-0.3-1.3,0.1-1.7
					c1.1-1.3,3-0.5,4.4-1.7C356.5,52.9,358.5,54.7,359.9,56.4 M342.3,61.5c0.3,0.4,0,2.3-0.8,3c-0.2,0.3-0.5,2.1-0.4,2.3
					c-0.1,0.3,1.7,0.3,1.4,1.3c-0.7,0.4-1.5,0.2-2.2,0c-0.5-0.1-0.7-0.6-0.7-1.1c0.5-1.3,0.4-2.9,1.7-4
					C341.4,62.7,341.3,60.8,342.3,61.5 M345.8,67.5c0,0.2-0.1,0.4-0.2,0.5c-0.4,0.1-1.3,0.2-1.8-0.1c-0.1-0.2-0.1-0.5-0.1-0.8
					C344.4,66.5,345.2,67,345.8,67.5 M349.4,73.6c-1.8,3-3.3,3.6-5.2,3.2c-1.6-0.1-2.5-2.5-3.9-3.1c-0.1-0.1-0.2-0.3-0.1-0.6
					c0.1-0.3,1.1-0.3,1.6-0.6c0.6-0.6,1.1-1.6,2.2-1.1c0.4,0.4,1,1.6,1.3,0.4c0.8-0.7,2.2,0.8,2.7,0.9l1.4,0.3
					C349.6,72.7,349.6,73.5,349.4,73.6"/>
			</g>
			<g>
				<path class="st2" d="M368.4,82.9c0.1,1-0.5,2.4-1.4,3.4l-0.2,0.3c-1.5,1.9-3.7,3.2-5.8,4.1c-0.3,0-0.5,0.2-0.8,0.2
					c-2.9,0.4-6.1,0.3-8.1-2.2c-0.9-1.1-2.2-3.3-1.7-4.1c0,0,0.1-0.1,0.2-0.1c6-1.4,12.3-5.5,13.6-6.7c0.2-0.1,0.5-0.2,0.5-0.1
					C366.9,78.2,368.5,81.2,368.4,82.9 M342,81.3c0.9,0.5,2,0.6,2.8,1.4c0.5,0.4,0.5,1.3,0.3,1.5c-1.3,2-3.4,3.9-5.5,4.8
					c-1,0.6-2.7,0.4-3.6-0.1c-1.1-0.7-1-2.1-0.7-3.3c0.6-1.4,1.1-2.9,2.4-4.1c0.5-0.4,0.8-1,1.6-1.1C340.1,80.5,340.9,81,342,81.3"
					/>
			</g>
			<g>
				<path class="st2" d="M333.2,83.2c-0.7,1.9-1.3,5,0.2,6.8c1.8,1.9,4.6,2,6.9,1.3c1.3-0.4,2.5-1,3.7-1.6c0.5,0.8,0.9,2,2,2.1
					s2-0.5,2.4-1.5c0,0,0.2-0.8,0.5-0.8c3.9,3.5,9.4,4.9,14.4,2.5c2-0.7,4.1-2.1,5.6-3.9c1.9-1.5,3-4.7,6.1-3.9
					c3.9,0.9,7.7,3.5,9.8,7.1c0.4,0.7,0.8,1.5,1.1,2.3c-5.8,7-13.8,12.2-22.8,14.9c0.1-1.4,0.4-2.7,0.8-4.1c0.5-2.1,2-5.9,1.9-6.1
					s-0.1-0.6-0.5-0.5c-0.5,0.2-0.9,0.9-1.1,1.5c-1.8,3.1-2.5,6.5-3.6,9.9c-3.4,0.7-6.9,1.1-10.5,1.1c-10.5,0-20.2-3.4-28-9.3
					c0.8-1.3,1.7-2.5,2.7-3.9c1.1-1.8,3.1-3.4,4.5-5.2c0.1-0.1,0.2-0.3-0.3-0.3l-0.2-0.1l-0.2,0.1c-0.3,0-2.3,2.5-3.7,3.3
					c-0.1,0-0.1,0-0.1-0.1c0.2-2.1,2.3-5.5,2-5.7c-0.8-0.9-1.7,1-1.9,1.5c-1,2-2.1,4.3-3.4,6.4c-0.5,0.9-0.8,1.8-1.1,2.5
					c-2.8-2.3-5.3-4.9-7.4-7.8l2-2c4.9-4,10.7-7.4,17.2-7C332.5,82.9,333.2,82.7,333.2,83.2"/>
			</g>
			<g>
				<path class="st2" d="M346.4,88.8c0.1,0.3,0,0.7-0.5,0.6l-0.3-0.3c-0.1-0.3,0-0.7,0.3-0.8C346.3,88.2,346.4,88.6,346.4,88.8"/>
			</g>
			<g>
				<path class="st1" d="M342.6,102c0.4,0.5,0.5,1.3,0.4,2c-0.2,0.7-0.9,1.5-1.8,1.6l-0.7-0.1c-0.7-0.4-1.6-0.8-1.7-1.8
					c-0.2-0.5,0-1.1,0.1-1.5c0.3-0.7,0.8-1,1.6-1.3C341.3,100.9,341.9,101.5,342.6,102"/>
			</g>
			<g>
				<path class="st2" d="M340.4,56.8c-0.2-0.4-1.1-1.7-2.8-1.6C339.5,55,340.2,56.2,340.4,56.8 M356.7,57.7c0.2,0.4,0,0.9-0.4,1
					c-0.3,0.2-0.5,0-0.8-0.1c-0.2-0.2-0.4-0.8,0-1.1C355.7,56.9,356.6,56.9,356.7,57.7 M338.5,57.5c0.4,0.3,0.4,0.8,0.3,1.1
					s-0.3,0.4-0.6,0.4c-0.4-0.1-0.9-0.3-0.9-0.9c0-0.4,0.2-0.7,0.5-0.8C338,57.2,338.3,57.3,338.5,57.5 M344.8,74.4
					c0.3,0,0.8-0.4,1,0.1c0.1,0.8-1.7,0.4-1.9,0.2c-0.3-0.1-1.3-0.3-0.6-0.8C343.6,73.6,344.3,74.6,344.8,74.4"/>
			</g>
			<g>
				<path class="st2" d="M340.7,102.5c-0.1,0.3-0.1,0.7-0.4,0.9c-0.2,0.1-0.4-0.1-0.5-0.3c0-0.4,0-0.8,0.4-0.9
					C340.5,102.1,340.7,102.3,340.7,102.5"/>
			</g>
		</g>
	</g>
	<polygon class="st1" points="513.5,84.4 513.5,84.4 517.9,63.8 497.3,63.8 	"/>
	<path class="st1" d="M579.7,63.8l-8.8,41.2c-1.1,5.3-4.2,10.5-9.1,14.6c-4.9,4-10.6,6-15.9,6h-20.6c-5.3,0-10.1-2-13.3-6
		c0,0,13,16.6,16.2,20.6s8,6.1,13.3,6.1h20.6c5.3,0,11-2,15.9-6.1c4.9-4,8-9.3,9.1-14.6l8.8-41.2L579.7,63.8z"/>
	<polygon class="st1" points="526.7,22.6 517.9,63.8 538.5,63.8 547.3,22.6 	"/>
	<path class="st1" d="M581.1,28.6c-3.2-4-16.2-20.6-16.2-20.6c3.2,4,4.1,9.3,2.9,14.6l-8.7,41.2h20.6l4.4-20.6
		C585.2,37.9,584.3,32.7,581.1,28.6z"/>
	<path class="st2" d="M567.8,22.6c1.1-5.3,0.2-10.5-2.9-14.6c-3.2-4-8-6-13.3-6H531c-5.3,0-11,2-15.8,6c-4.9,4-8,9.3-9.1,14.6
		l-8.7,41.2H518l-8.8,41.2c-1.1,5.3-0.2,10.5,3,14.6c3.2,4,8,6,13.3,6H546c5.3,0,11-2,15.9-6s8-9.3,9.1-14.6l8.8-41.2h-20.6
		L567.8,22.6z M550.3,105h-20.6l8.8-41.2h-20.6l8.7-41.2h20.6l-8.7,41.2h20.6L550.3,105z"/>
	<polygon class="st1" points="464.9,22.6 444.3,22.6 435.6,63.8 456.2,63.8 	"/>
	<path class="st1" d="M485.5,22.6l-8.7,41.2h20.6l4.4-20.6c1.1-5.3,0.2-10.5-2.9-14.6c-3.2-4-16.2-20.6-16.2-20.6
		C485.7,12.1,486.6,17.3,485.5,22.6z"/>
	<path class="st1" d="M497.3,63.8c-1.1,5.3-4.3,10.5-9.1,14.6c-4.9,4-10.6,6-15.8,6h-20.6l-8.8,41.2h-20.6l16.2,20.6h20.6L468,105
		h20.6c5.3,0,11-2,15.8-6c4.9-4,8-9.3,9.1-14.6l0,0L497.3,63.8z"/>
	<polygon class="st1" points="434.1,70.8 435.6,63.8 415,63.8 423.9,75.1 423.9,92.9 443.6,92.9 443.6,70.8 	"/>
	<path class="st2" d="M485.5,22.6c1.1-5.3,0.2-10.5-2.9-14.6c-3.2-4-8-6-13.3-6h-41.2L415,63.8h20.6l-13.1,61.8H443l8.8-41.2h20.6
		c5.3,0,11-2,15.8-6c4.9-4,8-9.3,9.1-14.6l0,0h-20.6L485.5,22.6z M435.6,63.8l8.7-41.2h20.6l-8.7,41.2H435.6z"/>
	<path class="st1" d="M650.2,22.6l-8.7,41.2h20.6l4.4-20.6c1.1-5.3,0.2-10.5-2.9-14.6c-3.2-4-16.2-20.6-16.2-20.6
		C650.4,12.1,651.3,17.3,650.2,22.6z"/>
	<polygon class="st1" points="629.6,22.6 609,22.6 600.3,63.8 620.9,63.8 	"/>
	<path class="st1" d="M662.1,63.8c-1.1,5.3-4.3,10.5-9.1,14.6c-4.9,4-10.6,6-15.8,6h-20.6l-8.8,41.2h-20.6l16.2,20.6H624l8.8-41.2
		h20.6c5.3,0,11-2,15.8-6c4.9-4,8-9.3,9.1-14.6l0,0L662.1,63.8z"/>
	<polygon class="st1" points="595.9,84.4 600.3,63.8 579.7,63.8 	"/>
	<path class="st2" d="M650.2,22.6c1.1-5.3,0.2-10.5-2.9-14.6c-3.2-4-8-6-13.3-6h-41.2l-13.1,61.8h20.6l-13.1,61.8h20.6l8.8-41.2
		h20.6c5.3,0,11-2,15.8-6c4.9-4,8-9.3,9.1-14.6l0,0h-20.6L650.2,22.6z M600.3,63.8l8.7-41.2h20.6l-8.7,41.2H600.3z"/>
</g>
</svg>
